<svg width="1280" height="640" viewBox="0 0 1280 640" fill="none" xmlns="http://www.w3.org/2000/svg">
<path d="M290.236 263.492L262.763 382H243.371L270.843 263.492H290.236ZM213.744 263.492L186.272 382H166.88L194.352 263.492H213.744ZM268.868 313.768L265.098 330.288H188.786L192.557 313.768H268.868ZM314.051 382L324.645 336.393L300.763 263.492H320.515L332.365 302.097L337.213 320.232L350.501 301.199L379.589 263.492H401.495L343.678 337.829L333.263 382H314.051ZM383.19 382L410.662 263.492H448.189C460.758 263.492 470.574 266.545 477.637 272.65C484.819 278.755 488.41 286.835 488.41 296.89C488.41 304.91 486.435 312.093 482.485 318.437C478.535 324.661 472.968 329.569 465.786 333.161C458.604 336.632 450.165 338.368 440.469 338.368H404.198L407.789 322.028H442.623C448.489 322.028 453.337 320.951 457.167 318.796C460.998 316.641 463.871 313.768 465.786 310.177C467.701 306.466 468.659 302.456 468.659 298.147C468.659 292.641 466.804 288.211 463.093 284.86C459.502 281.508 453.935 279.832 446.394 279.832H426.284L402.582 382H383.19ZM486.61 382L514.083 263.492H598.654L594.704 280.012H529.525L521.624 314.127H572.798L569.207 330.288H518.033L509.953 365.481H577.646L573.696 382H486.61ZM589.856 382L617.328 263.492H659.703C670.836 263.492 679.634 266.365 686.098 272.111C692.682 277.857 695.974 285.877 695.974 296.172C695.974 303.354 694.298 309.698 690.946 315.205C687.594 320.711 683.165 325.14 677.659 328.492C672.153 331.724 666.108 333.759 659.524 334.597L651.264 336.033H616.969L620.56 320.053H650.187C656.052 320.053 660.9 319.035 664.731 317C668.681 314.846 671.614 311.973 673.529 308.382C675.444 304.791 676.402 300.84 676.402 296.531C676.402 291.025 674.487 286.895 670.656 284.141C666.945 281.269 661.918 279.832 655.574 279.832H632.77L609.068 382H589.856ZM665.988 382L645.877 331.365L664.372 328.672L686.278 382H665.988ZM749.598 383.436C741.099 383.436 733.259 381.461 726.076 377.511C719.014 373.441 713.328 367.576 709.018 359.915C704.829 352.253 702.734 343.096 702.734 332.442C702.734 323.225 704.11 314.367 706.864 305.868C709.617 297.369 713.627 289.827 718.894 283.244C724.281 276.54 730.864 271.273 738.645 267.443C746.426 263.612 755.404 261.697 765.579 261.697C773.24 261.697 780.243 262.834 786.587 265.108C793.051 267.383 798.557 270.974 803.106 275.882C807.655 280.67 810.887 287.074 812.802 295.094L793.949 300.302C792.153 292.521 788.742 286.895 783.714 283.423C778.686 279.952 772.402 278.216 764.861 278.216C758.037 278.216 751.992 279.712 746.725 282.705C741.578 285.578 737.209 289.528 733.618 294.556C730.026 299.464 727.273 305.09 725.358 311.434C723.562 317.659 722.665 324.063 722.665 330.647C722.665 338.188 723.922 344.712 726.435 350.218C729.069 355.605 732.72 359.735 737.388 362.608C742.177 365.481 747.862 366.917 754.446 366.917C760.551 366.917 765.818 365.9 770.247 363.865C774.676 361.71 778.267 358.837 781.021 355.246C783.894 351.535 785.988 347.226 787.305 342.318L788.562 337.29H754.087L757.678 321.848H808.313L793.41 382H779.405L784.612 357.042L786.587 359.376C784.313 364.523 781.44 368.892 777.968 372.483C774.616 376.075 770.547 378.828 765.758 380.743C761.09 382.539 755.703 383.436 749.598 383.436ZM837.219 365.481H901.86L897.909 382H814.056L841.529 263.492H860.921L837.219 365.481ZM960.911 383.796C951.694 383.796 943.255 381.82 935.594 377.87C927.933 373.8 921.828 367.875 917.279 360.094C912.73 352.194 910.456 342.737 910.456 331.724C910.456 322.267 911.833 313.349 914.586 304.97C917.339 296.591 921.289 289.169 926.437 282.705C931.584 276.241 937.988 271.154 945.649 267.443C953.43 263.612 962.288 261.697 972.224 261.697C981.441 261.697 989.76 263.732 997.182 267.802C1004.72 271.872 1010.71 277.797 1015.14 285.578C1019.69 293.239 1021.96 302.636 1021.96 313.768C1021.96 323.105 1020.64 332.023 1018.01 340.522C1015.38 348.902 1011.43 356.323 1006.16 362.787C1001.01 369.251 994.608 374.399 986.947 378.229C979.406 381.94 970.727 383.796 960.911 383.796ZM962.348 366.917C968.932 366.917 974.677 365.421 979.585 362.428C984.613 359.316 988.803 355.246 992.154 350.218C995.506 345.071 998.02 339.325 999.696 332.981C1001.37 326.637 1002.21 320.232 1002.21 313.768C1002.21 306.347 1000.89 300.002 998.259 294.735C995.626 289.468 991.915 285.458 987.127 282.705C982.458 279.952 976.952 278.575 970.608 278.575C964.024 278.575 958.218 280.131 953.19 283.244C948.163 286.236 943.913 290.306 940.442 295.454C937.09 300.481 934.576 306.167 932.901 312.511C931.225 318.736 930.387 325.14 930.387 331.724C930.387 339.146 931.704 345.49 934.337 350.757C936.971 356.024 940.681 360.034 945.47 362.787C950.258 365.541 955.884 366.917 962.348 366.917ZM1027.03 382L1054.51 263.492H1100.65C1110.95 263.492 1118.91 265.946 1124.53 270.854C1130.28 275.642 1133.15 282.166 1133.15 290.426C1133.15 296.292 1132.02 301.499 1129.74 306.047C1127.59 310.477 1124.59 314.187 1120.76 317.18C1116.93 320.053 1112.5 322.028 1107.48 323.105V323.285C1113.34 324.123 1118.07 326.637 1121.66 330.826C1125.37 335.016 1127.23 340.044 1127.23 345.909C1127.23 353.81 1125.31 360.453 1121.48 365.84C1117.65 371.227 1112.32 375.297 1105.5 378.05C1098.8 380.683 1090.96 382 1081.98 382H1027.03ZM1049.84 366.019H1080.36C1089.1 366.019 1095.75 364.224 1100.29 360.633C1104.96 357.042 1107.3 352.014 1107.3 345.55C1107.3 342.318 1106.58 339.625 1105.14 337.47C1103.71 335.315 1101.55 333.699 1098.68 332.622C1095.92 331.545 1092.45 331.006 1088.26 331.006H1057.92L1049.84 366.019ZM1061.51 314.846H1089.16C1094.31 314.846 1098.68 313.948 1102.27 312.152C1105.86 310.357 1108.61 307.903 1110.53 304.791C1112.44 301.559 1113.4 297.848 1113.4 293.658C1113.4 288.511 1111.67 284.92 1108.19 282.885C1104.84 280.73 1100.53 279.653 1095.27 279.653H1069.77L1061.51 314.846Z" fill="#3D65C3"/>
<path d="M271.999 263.492L244.527 382H225.135L252.607 263.492H271.999ZM195.508 263.492L168.036 382H148.644L176.116 263.492H195.508ZM250.632 313.768L246.861 330.288H170.55L174.32 313.768H250.632ZM295.814 382L306.408 336.393L282.527 263.492H302.278L314.129 302.097L318.977 320.232L332.264 301.199L361.353 263.492H383.259L325.441 337.829L315.027 382H295.814ZM364.954 382L392.426 263.492H429.953C442.522 263.492 452.338 266.545 459.4 272.65C466.583 278.755 470.174 286.835 470.174 296.89C470.174 304.91 468.199 312.093 464.249 318.437C460.298 324.661 454.732 329.569 447.55 333.161C440.367 336.632 431.928 338.368 422.232 338.368H385.962L389.553 322.028H424.387C430.252 322.028 435.1 320.951 438.931 318.796C442.762 316.641 445.634 313.768 447.55 310.177C449.465 306.466 450.423 302.456 450.423 298.147C450.423 292.641 448.567 288.211 444.856 284.86C441.265 281.508 435.699 279.832 428.158 279.832H408.047L384.346 382H364.954ZM468.374 382L495.846 263.492H580.418L576.467 280.012H511.288L503.388 314.127H554.561L550.97 330.288H499.797L491.717 365.481H559.409L555.459 382H468.374ZM571.619 382L599.092 263.492H641.467C652.6 263.492 661.398 266.365 667.862 272.111C674.446 277.857 677.737 285.877 677.737 296.172C677.737 303.354 676.062 309.698 672.71 315.205C669.358 320.711 664.929 325.14 659.423 328.492C653.916 331.724 647.871 333.759 641.287 334.597L633.028 336.033H598.732L602.324 320.053H631.95C637.816 320.053 642.664 319.035 646.495 317C650.445 314.846 653.378 311.973 655.293 308.382C657.208 304.791 658.166 300.84 658.166 296.531C658.166 291.025 656.251 286.895 652.42 284.141C648.709 281.269 643.682 279.832 637.337 279.832H614.533L590.832 382H571.619ZM647.751 382L627.641 331.365L646.135 328.672L668.041 382H647.751ZM731.362 383.436C722.863 383.436 715.022 381.461 707.84 377.511C700.777 373.441 695.091 367.576 690.782 359.915C686.592 352.253 684.498 343.096 684.498 332.442C684.498 323.225 685.874 314.367 688.627 305.868C691.381 297.369 695.391 289.827 700.658 283.244C706.044 276.54 712.628 271.273 720.409 267.443C728.19 263.612 737.168 261.697 747.342 261.697C755.004 261.697 762.006 262.834 768.351 265.108C774.815 267.383 780.321 270.974 784.87 275.882C789.419 280.67 792.651 287.074 794.566 295.094L775.712 300.302C773.917 292.521 770.505 286.895 765.478 283.423C760.45 279.952 754.166 278.216 746.624 278.216C739.801 278.216 733.756 279.712 728.489 282.705C723.342 285.578 718.972 289.528 715.381 294.556C711.79 299.464 709.037 305.09 707.122 311.434C705.326 317.659 704.428 324.063 704.428 330.647C704.428 338.188 705.685 344.712 708.199 350.218C710.833 355.605 714.484 359.735 719.152 362.608C723.94 365.481 729.626 366.917 736.21 366.917C742.315 366.917 747.582 365.9 752.011 363.865C756.44 361.71 760.031 358.837 762.784 355.246C765.657 351.535 767.752 347.226 769.069 342.318L770.326 337.29H735.851L739.442 321.848H790.077L775.174 382H761.168L766.375 357.042L768.351 359.376C766.076 364.523 763.203 368.892 759.732 372.483C756.38 376.075 752.31 378.828 747.522 380.743C742.854 382.539 737.467 383.436 731.362 383.436ZM818.983 365.481H883.623L879.673 382H795.82L823.292 263.492H842.684L818.983 365.481ZM942.675 383.796C933.458 383.796 925.019 381.82 917.358 377.87C909.696 373.8 903.592 367.875 899.043 360.094C894.494 352.194 892.22 342.737 892.22 331.724C892.22 322.267 893.596 313.349 896.349 304.97C899.103 296.591 903.053 289.169 908.2 282.705C913.347 276.241 919.752 271.154 927.413 267.443C935.194 263.612 944.052 261.697 953.987 261.697C963.204 261.697 971.524 263.732 978.946 267.802C986.487 271.872 992.472 277.797 996.901 285.578C1001.45 293.239 1003.72 302.636 1003.72 313.768C1003.72 323.105 1002.41 332.023 999.774 340.522C997.141 348.902 993.19 356.323 987.923 362.787C982.776 369.251 976.372 374.399 968.711 378.229C961.169 381.94 952.491 383.796 942.675 383.796ZM944.112 366.917C950.695 366.917 956.441 365.421 961.349 362.428C966.377 359.316 970.566 355.246 973.918 350.218C977.27 345.071 979.784 339.325 981.459 332.981C983.135 326.637 983.973 320.232 983.973 313.768C983.973 306.347 982.656 300.002 980.023 294.735C977.389 289.468 973.679 285.458 968.89 282.705C964.222 279.952 958.716 278.575 952.371 278.575C945.787 278.575 939.982 280.131 934.954 283.244C929.927 286.236 925.677 290.306 922.206 295.454C918.854 300.481 916.34 306.167 914.664 312.511C912.988 318.736 912.15 325.14 912.15 331.724C912.15 339.146 913.467 345.49 916.101 350.757C918.734 356.024 922.445 360.034 927.233 362.787C932.021 365.541 937.648 366.917 944.112 366.917ZM1008.8 382L1036.27 263.492H1082.42C1092.71 263.492 1100.67 265.946 1106.3 270.854C1112.04 275.642 1114.92 282.166 1114.92 290.426C1114.92 296.292 1113.78 301.499 1111.5 306.047C1109.35 310.477 1106.36 314.187 1102.53 317.18C1098.7 320.053 1094.27 322.028 1089.24 323.105V323.285C1095.11 324.123 1099.83 326.637 1103.42 330.826C1107.14 335.016 1108.99 340.044 1108.99 345.909C1108.99 353.81 1107.08 360.453 1103.25 365.84C1099.41 371.227 1094.09 375.297 1087.26 378.05C1080.56 380.683 1072.72 382 1063.74 382H1008.8ZM1031.6 366.019H1062.13C1070.87 366.019 1077.51 364.224 1082.06 360.633C1086.73 357.042 1089.06 352.014 1089.06 345.55C1089.06 342.318 1088.34 339.625 1086.91 337.47C1085.47 335.315 1083.31 333.699 1080.44 332.622C1077.69 331.545 1074.22 331.006 1070.03 331.006H1039.68L1031.6 366.019ZM1043.27 314.846H1070.93C1076.07 314.846 1080.44 313.948 1084.03 312.152C1087.62 310.357 1090.38 307.903 1092.29 304.791C1094.21 301.559 1095.17 297.848 1095.17 293.658C1095.17 288.511 1093.43 284.92 1089.96 282.885C1086.61 280.73 1082.3 279.653 1077.03 279.653H1051.53L1043.27 314.846Z" fill="#3CBD94"/>
<path d="M283.222 263.492L255.75 382H236.358L263.83 263.492H283.222ZM206.731 263.492L179.258 382H159.866L187.338 263.492H206.731ZM261.855 313.768L258.084 330.288H181.772L185.543 313.768H261.855ZM307.037 382L317.631 336.393L293.75 263.492H313.501L325.352 302.097L330.2 320.232L343.487 301.199L372.575 263.492H394.481L336.664 337.829L326.25 382H307.037ZM376.176 382L403.648 263.492H441.176C453.745 263.492 463.561 266.545 470.623 272.65C477.805 278.755 481.397 286.835 481.397 296.89C481.397 304.91 479.421 312.093 475.471 318.437C471.521 324.661 465.955 329.569 458.772 333.161C451.59 336.632 443.151 338.368 433.455 338.368H397.184L400.776 322.028H435.61C441.475 322.028 446.323 320.951 450.154 318.796C453.984 316.641 456.857 313.768 458.772 310.177C460.688 306.466 461.645 302.456 461.645 298.147C461.645 292.641 459.79 288.211 456.079 284.86C452.488 281.508 446.922 279.832 439.38 279.832H419.27L395.568 382H376.176ZM479.597 382L507.069 263.492H591.64L587.69 280.012H522.511L514.61 314.127H565.784L562.193 330.288H511.019L502.939 365.481H570.632L566.682 382H479.597ZM582.842 382L610.314 263.492H652.69C663.822 263.492 672.62 266.365 679.085 272.111C685.668 277.857 688.96 285.877 688.96 296.172C688.96 303.354 687.284 309.698 683.933 315.205C680.581 320.711 676.152 325.14 670.645 328.492C665.139 331.724 659.094 333.759 652.51 334.597L644.25 336.033H609.955L613.546 320.053H643.173C649.039 320.053 653.887 319.035 657.717 317C661.667 314.846 664.6 311.973 666.516 308.382C668.431 304.791 669.388 300.84 669.388 296.531C669.388 291.025 667.473 286.895 663.643 284.141C659.932 281.269 654.904 279.832 648.56 279.832H625.756L602.055 382H582.842ZM658.974 382L638.864 331.365L657.358 328.672L679.264 382H658.974ZM742.585 383.436C734.086 383.436 726.245 381.461 719.063 377.511C712 373.441 706.314 367.576 702.005 359.915C697.815 352.253 695.72 343.096 695.72 332.442C695.72 323.225 697.097 314.367 699.85 305.868C702.603 297.369 706.613 289.827 711.88 283.244C717.267 276.54 723.851 271.273 731.632 267.443C739.412 263.612 748.39 261.697 758.565 261.697C766.226 261.697 773.229 262.834 779.573 265.108C786.037 267.383 791.544 270.974 796.092 275.882C800.641 280.67 803.873 287.074 805.789 295.094L786.935 300.302C785.14 292.521 781.728 286.895 776.7 283.423C771.673 279.952 765.388 278.216 757.847 278.216C751.024 278.216 744.979 279.712 739.712 282.705C734.564 285.578 730.195 289.528 726.604 294.556C723.013 299.464 720.26 305.09 718.344 311.434C716.549 317.659 715.651 324.063 715.651 330.647C715.651 338.188 716.908 344.712 719.422 350.218C722.055 355.605 725.706 359.735 730.375 362.608C735.163 365.481 740.849 366.917 747.433 366.917C753.538 366.917 758.805 365.9 763.234 363.865C767.663 361.71 771.254 358.837 774.007 355.246C776.88 351.535 778.975 347.226 780.291 342.318L781.548 337.29H747.073L750.665 321.848H801.3L786.396 382H772.391L777.598 357.042L779.573 359.376C777.299 364.523 774.426 368.892 770.955 372.483C767.603 376.075 763.533 378.828 758.745 380.743C754.076 382.539 748.689 383.436 742.585 383.436ZM830.205 365.481H894.846L890.896 382H807.043L834.515 263.492H853.907L830.205 365.481ZM953.898 383.796C944.681 383.796 936.241 381.82 928.58 377.87C920.919 373.8 914.814 367.875 910.265 360.094C905.717 352.194 903.442 342.737 903.442 331.724C903.442 322.267 904.819 313.349 907.572 304.97C910.325 296.591 914.276 289.169 919.423 282.705C924.57 276.241 930.974 271.154 938.635 267.443C946.416 263.612 955.274 261.697 965.21 261.697C974.427 261.697 982.747 263.732 990.168 267.802C997.71 271.872 1003.69 277.797 1008.12 285.578C1012.67 293.239 1014.95 302.636 1014.95 313.768C1014.95 323.105 1013.63 332.023 1011 340.522C1008.36 348.902 1004.41 356.323 999.146 362.787C993.999 369.251 987.595 374.399 979.934 378.229C972.392 381.94 963.714 383.796 953.898 383.796ZM955.334 366.917C961.918 366.917 967.664 365.421 972.572 362.428C977.599 359.316 981.789 355.246 985.141 350.218C988.492 345.071 991.006 339.325 992.682 332.981C994.358 326.637 995.196 320.232 995.196 313.768C995.196 306.347 993.879 300.002 991.246 294.735C988.612 289.468 984.901 285.458 980.113 282.705C975.445 279.952 969.938 278.575 963.594 278.575C957.01 278.575 951.204 280.131 946.177 283.244C941.149 286.236 936.9 290.306 933.428 295.454C930.077 300.481 927.563 306.167 925.887 312.511C924.211 318.736 923.373 325.14 923.373 331.724C923.373 339.146 924.69 345.49 927.323 350.757C929.957 356.024 933.668 360.034 938.456 362.787C943.244 365.541 948.87 366.917 955.334 366.917ZM1020.02 382L1047.49 263.492H1093.64C1103.93 263.492 1111.89 265.946 1117.52 270.854C1123.27 275.642 1126.14 282.166 1126.14 290.426C1126.14 296.292 1125 301.499 1122.73 306.047C1120.57 310.477 1117.58 314.187 1113.75 317.18C1109.92 320.053 1105.49 322.028 1100.46 323.105V323.285C1106.33 324.123 1111.06 326.637 1114.65 330.826C1118.36 335.016 1120.21 340.044 1120.21 345.909C1120.21 353.81 1118.3 360.453 1114.47 365.84C1110.64 371.227 1105.31 375.297 1098.49 378.05C1091.78 380.683 1083.94 382 1074.97 382H1020.02ZM1042.82 366.019H1073.35C1082.09 366.019 1088.73 364.224 1093.28 360.633C1097.95 357.042 1100.28 352.014 1100.28 345.55C1100.28 342.318 1099.56 339.625 1098.13 337.47C1096.69 335.315 1094.54 333.699 1091.66 332.622C1088.91 331.545 1085.44 331.006 1081.25 331.006H1050.9L1042.82 366.019ZM1054.5 314.846H1082.15C1087.29 314.846 1091.66 313.948 1095.26 312.152C1098.85 310.357 1101.6 307.903 1103.51 304.791C1105.43 301.559 1106.39 297.848 1106.39 293.658C1106.39 288.511 1104.65 284.92 1101.18 282.885C1097.83 280.73 1093.52 279.653 1088.25 279.653H1062.76L1054.5 314.846Z" fill="#F8506E"/>
</svg>
