<svg width="1280" height="640" viewBox="0 0 1280 640" fill="none" xmlns="http://www.w3.org/2000/svg">
<mask id="path-1-outside-1_2703_45" maskUnits="userSpaceOnUse" x="202" y="251" width="858" height="175" fill="black">
<rect fill="white" x="202" y="251" width="858" height="175"/>
<path d="M208.409 382L237.497 256.31H278.795L265.328 314.487L262.276 320.592C263.712 315.444 265.867 310.596 268.74 306.047C271.613 301.499 275.443 297.788 280.232 294.915C285.02 291.922 290.825 290.426 297.649 290.426C303.035 290.426 307.644 291.743 311.475 294.376C315.425 297.01 318.178 300.661 319.734 305.329C321.29 309.998 321.35 315.444 319.914 321.669L305.908 382H264.61L276.82 329.928C277.419 327.175 277.179 325.021 276.102 323.464C275.144 321.789 273.468 320.951 271.074 320.951C269.398 320.951 267.902 321.429 266.585 322.387C265.269 323.225 264.131 324.542 263.174 326.337C262.336 328.013 261.618 330.168 261.019 332.801L249.707 382H208.409ZM323.105 420.605C317.479 420.605 312.212 420.006 307.304 418.809C302.276 417.612 298.386 416.116 295.633 414.32L305.868 386.489C310.057 389.96 315.564 391.696 322.387 391.696C325.379 391.696 328.013 391.277 330.287 390.439C332.681 389.601 334.417 388.344 335.494 386.668L336.033 385.771L320.232 292.222H362.248L361.171 338.547L360.094 360.094L368.533 338.368L387.027 292.222H430.121L379.127 382.718C373.98 391.935 368.712 399.297 363.326 404.804C358.059 410.43 352.193 414.44 345.729 416.834C339.265 419.348 331.724 420.605 323.105 420.605ZM398.474 419.707L427.921 292.222H465.628L459.164 328.492L457.548 325.08C458.865 317.898 461.199 311.733 464.551 306.586C468.022 301.439 472.152 297.489 476.94 294.735C481.848 291.862 487.055 290.426 492.562 290.426C497.949 290.426 502.617 291.683 506.567 294.197C510.518 296.591 513.57 300.242 515.725 305.15C517.999 310.058 519.136 316.222 519.136 323.644C519.136 330.587 518.239 337.649 516.443 344.832C514.647 351.894 511.954 358.358 508.363 364.224C504.891 370.089 500.702 374.818 495.794 378.409C490.886 382 485.26 383.796 478.916 383.796C474.846 383.796 470.716 383.077 466.526 381.641C462.336 380.085 458.805 377.391 455.932 373.561C453.179 369.611 451.802 364.164 451.802 357.221L456.112 348.423L439.772 419.707H398.474ZM464.551 354.528C467.065 354.528 469.16 353.63 470.835 351.834C472.631 349.919 474.068 347.645 475.145 345.011C476.222 342.258 477 339.505 477.479 336.752C478.078 333.879 478.377 331.545 478.377 329.749C478.377 327.594 478.137 325.799 477.659 324.362C477.18 322.806 476.342 321.609 475.145 320.771C474.068 319.933 472.631 319.514 470.835 319.514C468.681 319.514 466.766 320.412 465.09 322.208C463.414 323.883 461.977 326.098 460.78 328.851C459.703 331.604 458.865 334.417 458.266 337.29C457.788 340.163 457.548 342.797 457.548 345.191C457.548 348.183 458.147 350.518 459.344 352.194C460.541 353.75 462.277 354.528 464.551 354.528ZM566.026 383.616C556.809 383.616 548.549 382 541.247 378.768C534.065 375.536 528.439 370.867 524.369 364.763C520.299 358.538 518.264 351.176 518.264 342.677C518.264 332.143 520.418 322.986 524.728 315.205C529.157 307.304 535.322 301.199 543.222 296.89C551.242 292.581 560.579 290.426 571.233 290.426C580.929 290.426 589.189 292.162 596.012 295.633C602.835 298.985 607.982 303.653 611.454 309.639C615.045 315.624 616.84 322.567 616.84 330.467C616.84 332.742 616.721 335.136 616.481 337.649C616.242 340.163 615.763 342.617 615.045 345.011H546.454L546.275 329.749H586.495L576.62 333.52C577.218 331.844 577.518 330.467 577.518 329.39C577.637 328.312 577.697 327.295 577.697 326.337C577.697 324.063 577.338 322.327 576.62 321.13C576.021 319.813 575.183 318.916 574.106 318.437C573.029 317.838 571.832 317.539 570.515 317.539C567.402 317.539 564.829 318.437 562.794 320.232C560.879 322.028 559.382 324.362 558.305 327.235C557.347 330.108 556.689 333.161 556.33 336.393C555.971 339.625 555.791 342.617 555.791 345.37C555.791 348.124 556.27 350.338 557.228 352.014C558.185 353.69 559.502 354.887 561.178 355.605C562.973 356.323 564.949 356.682 567.103 356.682C570.216 356.682 572.61 355.904 574.286 354.348C576.081 352.672 577.338 350.757 578.056 348.602L612.531 359.735C610.736 364.763 607.563 369.072 603.015 372.663C598.466 376.254 593.019 379.007 586.675 380.923C580.331 382.718 573.448 383.616 566.026 383.616ZM609.459 382L630.288 292.222H667.456L659.735 332.801L658.837 328.672C660.752 321.13 663.206 314.487 666.199 308.741C669.192 302.995 673.022 298.506 677.691 295.274C682.479 292.042 688.285 290.426 695.108 290.426C697.143 290.426 698.819 290.606 700.135 290.965C701.452 291.204 702.529 291.563 703.367 292.042L693.851 325.799C692.654 325.2 691.217 324.721 689.541 324.362C687.866 324.003 685.651 323.824 682.898 323.824C679.666 323.824 676.434 324.542 673.202 325.978C670.089 327.295 667.276 329.51 664.763 332.622C662.368 335.734 660.513 339.984 659.196 345.37L650.757 382H609.459ZM723.525 420.605C718.019 420.605 712.632 419.946 707.365 418.63C702.098 417.313 697.37 415.218 693.18 412.345C688.991 409.472 685.759 405.761 683.484 401.213C681.21 396.784 680.252 391.457 680.611 385.232L722.089 383.077C721.61 387.028 721.73 390.14 722.448 392.414C723.166 394.808 725.321 396.005 728.912 396.005C730.708 396.005 732.264 395.407 733.581 394.21C735.017 393.133 736.214 391.457 737.172 389.182C738.249 386.908 739.207 383.915 740.045 380.204L748.125 345.73L749.202 347.346C747.287 357.999 743.755 366.019 738.608 371.406C733.461 376.793 726.698 379.486 718.318 379.486C713.051 379.486 708.263 378.289 703.954 375.895C699.644 373.501 696.233 369.85 693.719 364.942C691.205 360.034 689.948 353.81 689.948 346.268C689.948 339.445 690.906 332.742 692.821 326.158C694.736 319.454 697.549 313.409 701.26 308.023C704.971 302.636 709.46 298.386 714.727 295.274C719.994 292.042 726.039 290.426 732.862 290.426C736.573 290.426 740.224 291.324 743.815 293.119C747.526 294.915 750.579 297.967 752.973 302.277C755.367 306.466 756.384 312.152 756.025 319.335L751.895 325.799L759.616 292.222H800.914L781.881 374.818C779.248 386.429 775.417 395.527 770.39 402.11C765.362 408.814 758.958 413.542 751.177 416.295C743.516 419.168 734.299 420.605 723.525 420.605ZM738.249 350.937C741.122 350.937 743.456 349.74 745.252 347.346C747.047 344.951 748.364 342.079 749.202 338.727C750.16 335.255 750.638 331.963 750.638 328.851C750.638 326.936 750.339 325.32 749.741 324.003C749.142 322.567 748.304 321.489 747.227 320.771C746.15 320.053 744.893 319.694 743.456 319.694C740.344 319.694 737.83 321.011 735.915 323.644C734 326.158 732.623 329.091 731.785 332.442C730.947 335.674 730.528 338.428 730.528 340.702C730.528 343.814 731.067 346.328 732.144 348.243C733.341 350.039 735.376 350.937 738.249 350.937ZM824.286 383.796C811.957 383.796 803.218 380.564 798.071 374.099C792.924 367.516 791.667 358.598 794.3 347.346L815.488 256.31H856.786L835.957 346.268C835.119 349.74 835.239 352.373 836.317 354.169C837.394 355.964 839.549 356.862 842.781 356.862C843.978 356.862 844.995 356.802 845.833 356.682C846.791 356.563 847.509 356.443 847.988 356.323L841.344 381.461C839.429 382.299 837.095 382.898 834.341 383.257C831.588 383.616 828.236 383.796 824.286 383.796ZM894.983 383.796C885.526 383.796 877.266 382.06 870.204 378.588C863.261 375.117 857.814 370.329 853.864 364.224C850.033 357.999 848.118 350.877 848.118 342.857C848.118 333.52 850.153 324.901 854.223 317C858.293 308.98 864.338 302.576 872.358 297.788C880.498 292.88 890.613 290.426 902.703 290.426C912.16 290.426 920.36 292.162 927.303 295.633C934.365 299.105 939.812 303.953 943.642 310.177C947.593 316.282 949.568 323.345 949.568 331.365C949.568 340.582 947.533 349.201 943.463 357.221C939.393 365.241 933.288 371.705 925.148 376.613C917.128 381.401 907.073 383.796 894.983 383.796ZM895.342 356.144C897.616 356.144 899.591 355.126 901.267 353.091C903.063 351.056 904.559 348.483 905.756 345.37C906.953 342.138 907.851 338.906 908.449 335.674C909.048 332.323 909.347 329.39 909.347 326.876C909.347 324.602 908.988 322.866 908.27 321.669C907.671 320.352 906.833 319.454 905.756 318.976C904.679 318.377 903.482 318.078 902.165 318.078C899.89 318.078 897.855 319.095 896.06 321.13C894.384 323.165 892.948 325.799 891.751 329.031C890.553 332.143 889.656 335.375 889.057 338.727C888.459 341.959 888.159 344.832 888.159 347.346C888.159 349.5 888.459 351.236 889.057 352.553C889.775 353.869 890.673 354.827 891.751 355.426C892.828 355.904 894.025 356.144 895.342 356.144ZM1027.59 290.426C1032.98 290.426 1037.65 291.683 1041.6 294.197C1045.55 296.591 1048.6 300.242 1050.76 305.15C1053.03 310.058 1054.17 316.222 1054.17 323.644C1054.17 330.587 1053.21 337.649 1051.29 344.832C1049.5 351.894 1046.86 358.358 1043.39 364.224C1039.92 370.089 1035.67 374.818 1030.64 378.409C1025.62 382 1019.93 383.796 1013.59 383.796C1010 383.796 1006.28 383.197 1002.45 382C998.743 380.923 995.452 379.007 992.579 376.254C989.826 373.381 987.97 369.431 987.012 364.403L981.985 382H942.123L971.211 256.31H1012.51L1001.02 306.586C1004.13 301.439 1007.96 297.489 1012.51 294.735C1017.06 291.862 1022.09 290.426 1027.59 290.426ZM999.581 354.528C1002.1 354.528 1004.19 353.63 1005.87 351.834C1007.66 349.919 1009.1 347.645 1010.18 345.011C1011.25 342.258 1012.03 339.505 1012.51 336.752C1013.11 333.879 1013.41 331.545 1013.41 329.749C1013.41 327.594 1013.17 325.799 1012.69 324.362C1012.21 322.806 1011.37 321.609 1010.18 320.771C1009.1 319.933 1007.66 319.514 1005.87 319.514C1003.71 319.514 1001.8 320.412 1000.12 322.208C998.444 323.883 997.008 326.098 995.811 328.851C994.733 331.604 993.895 334.417 993.297 337.29C992.818 340.163 992.579 342.797 992.579 345.191C992.579 348.183 993.177 350.518 994.374 352.194C995.571 353.75 997.307 354.528 999.581 354.528Z"/>
</mask>
<path d="M208.409 382L237.497 256.31H278.795L265.328 314.487L262.276 320.592C263.712 315.444 265.867 310.596 268.74 306.047C271.613 301.499 275.443 297.788 280.232 294.915C285.02 291.922 290.825 290.426 297.649 290.426C303.035 290.426 307.644 291.743 311.475 294.376C315.425 297.01 318.178 300.661 319.734 305.329C321.29 309.998 321.35 315.444 319.914 321.669L305.908 382H264.61L276.82 329.928C277.419 327.175 277.179 325.021 276.102 323.464C275.144 321.789 273.468 320.951 271.074 320.951C269.398 320.951 267.902 321.429 266.585 322.387C265.269 323.225 264.131 324.542 263.174 326.337C262.336 328.013 261.618 330.168 261.019 332.801L249.707 382H208.409ZM323.105 420.605C317.479 420.605 312.212 420.006 307.304 418.809C302.276 417.612 298.386 416.116 295.633 414.32L305.868 386.489C310.057 389.96 315.564 391.696 322.387 391.696C325.379 391.696 328.013 391.277 330.287 390.439C332.681 389.601 334.417 388.344 335.494 386.668L336.033 385.771L320.232 292.222H362.248L361.171 338.547L360.094 360.094L368.533 338.368L387.027 292.222H430.121L379.127 382.718C373.98 391.935 368.712 399.297 363.326 404.804C358.059 410.43 352.193 414.44 345.729 416.834C339.265 419.348 331.724 420.605 323.105 420.605ZM398.474 419.707L427.921 292.222H465.628L459.164 328.492L457.548 325.08C458.865 317.898 461.199 311.733 464.551 306.586C468.022 301.439 472.152 297.489 476.94 294.735C481.848 291.862 487.055 290.426 492.562 290.426C497.949 290.426 502.617 291.683 506.567 294.197C510.518 296.591 513.57 300.242 515.725 305.15C517.999 310.058 519.136 316.222 519.136 323.644C519.136 330.587 518.239 337.649 516.443 344.832C514.647 351.894 511.954 358.358 508.363 364.224C504.891 370.089 500.702 374.818 495.794 378.409C490.886 382 485.26 383.796 478.916 383.796C474.846 383.796 470.716 383.077 466.526 381.641C462.336 380.085 458.805 377.391 455.932 373.561C453.179 369.611 451.802 364.164 451.802 357.221L456.112 348.423L439.772 419.707H398.474ZM464.551 354.528C467.065 354.528 469.16 353.63 470.835 351.834C472.631 349.919 474.068 347.645 475.145 345.011C476.222 342.258 477 339.505 477.479 336.752C478.078 333.879 478.377 331.545 478.377 329.749C478.377 327.594 478.137 325.799 477.659 324.362C477.18 322.806 476.342 321.609 475.145 320.771C474.068 319.933 472.631 319.514 470.835 319.514C468.681 319.514 466.766 320.412 465.09 322.208C463.414 323.883 461.977 326.098 460.78 328.851C459.703 331.604 458.865 334.417 458.266 337.29C457.788 340.163 457.548 342.797 457.548 345.191C457.548 348.183 458.147 350.518 459.344 352.194C460.541 353.75 462.277 354.528 464.551 354.528ZM566.026 383.616C556.809 383.616 548.549 382 541.247 378.768C534.065 375.536 528.439 370.867 524.369 364.763C520.299 358.538 518.264 351.176 518.264 342.677C518.264 332.143 520.418 322.986 524.728 315.205C529.157 307.304 535.322 301.199 543.222 296.89C551.242 292.581 560.579 290.426 571.233 290.426C580.929 290.426 589.189 292.162 596.012 295.633C602.835 298.985 607.982 303.653 611.454 309.639C615.045 315.624 616.84 322.567 616.84 330.467C616.84 332.742 616.721 335.136 616.481 337.649C616.242 340.163 615.763 342.617 615.045 345.011H546.454L546.275 329.749H586.495L576.62 333.52C577.218 331.844 577.518 330.467 577.518 329.39C577.637 328.312 577.697 327.295 577.697 326.337C577.697 324.063 577.338 322.327 576.62 321.13C576.021 319.813 575.183 318.916 574.106 318.437C573.029 317.838 571.832 317.539 570.515 317.539C567.402 317.539 564.829 318.437 562.794 320.232C560.879 322.028 559.382 324.362 558.305 327.235C557.347 330.108 556.689 333.161 556.33 336.393C555.971 339.625 555.791 342.617 555.791 345.37C555.791 348.124 556.27 350.338 557.228 352.014C558.185 353.69 559.502 354.887 561.178 355.605C562.973 356.323 564.949 356.682 567.103 356.682C570.216 356.682 572.61 355.904 574.286 354.348C576.081 352.672 577.338 350.757 578.056 348.602L612.531 359.735C610.736 364.763 607.563 369.072 603.015 372.663C598.466 376.254 593.019 379.007 586.675 380.923C580.331 382.718 573.448 383.616 566.026 383.616ZM609.459 382L630.288 292.222H667.456L659.735 332.801L658.837 328.672C660.752 321.13 663.206 314.487 666.199 308.741C669.192 302.995 673.022 298.506 677.691 295.274C682.479 292.042 688.285 290.426 695.108 290.426C697.143 290.426 698.819 290.606 700.135 290.965C701.452 291.204 702.529 291.563 703.367 292.042L693.851 325.799C692.654 325.2 691.217 324.721 689.541 324.362C687.866 324.003 685.651 323.824 682.898 323.824C679.666 323.824 676.434 324.542 673.202 325.978C670.089 327.295 667.276 329.51 664.763 332.622C662.368 335.734 660.513 339.984 659.196 345.37L650.757 382H609.459ZM723.525 420.605C718.019 420.605 712.632 419.946 707.365 418.63C702.098 417.313 697.37 415.218 693.18 412.345C688.991 409.472 685.759 405.761 683.484 401.213C681.21 396.784 680.252 391.457 680.611 385.232L722.089 383.077C721.61 387.028 721.73 390.14 722.448 392.414C723.166 394.808 725.321 396.005 728.912 396.005C730.708 396.005 732.264 395.407 733.581 394.21C735.017 393.133 736.214 391.457 737.172 389.182C738.249 386.908 739.207 383.915 740.045 380.204L748.125 345.73L749.202 347.346C747.287 357.999 743.755 366.019 738.608 371.406C733.461 376.793 726.698 379.486 718.318 379.486C713.051 379.486 708.263 378.289 703.954 375.895C699.644 373.501 696.233 369.85 693.719 364.942C691.205 360.034 689.948 353.81 689.948 346.268C689.948 339.445 690.906 332.742 692.821 326.158C694.736 319.454 697.549 313.409 701.26 308.023C704.971 302.636 709.46 298.386 714.727 295.274C719.994 292.042 726.039 290.426 732.862 290.426C736.573 290.426 740.224 291.324 743.815 293.119C747.526 294.915 750.579 297.967 752.973 302.277C755.367 306.466 756.384 312.152 756.025 319.335L751.895 325.799L759.616 292.222H800.914L781.881 374.818C779.248 386.429 775.417 395.527 770.39 402.11C765.362 408.814 758.958 413.542 751.177 416.295C743.516 419.168 734.299 420.605 723.525 420.605ZM738.249 350.937C741.122 350.937 743.456 349.74 745.252 347.346C747.047 344.951 748.364 342.079 749.202 338.727C750.16 335.255 750.638 331.963 750.638 328.851C750.638 326.936 750.339 325.32 749.741 324.003C749.142 322.567 748.304 321.489 747.227 320.771C746.15 320.053 744.893 319.694 743.456 319.694C740.344 319.694 737.83 321.011 735.915 323.644C734 326.158 732.623 329.091 731.785 332.442C730.947 335.674 730.528 338.428 730.528 340.702C730.528 343.814 731.067 346.328 732.144 348.243C733.341 350.039 735.376 350.937 738.249 350.937ZM824.286 383.796C811.957 383.796 803.218 380.564 798.071 374.099C792.924 367.516 791.667 358.598 794.3 347.346L815.488 256.31H856.786L835.957 346.268C835.119 349.74 835.239 352.373 836.317 354.169C837.394 355.964 839.549 356.862 842.781 356.862C843.978 356.862 844.995 356.802 845.833 356.682C846.791 356.563 847.509 356.443 847.988 356.323L841.344 381.461C839.429 382.299 837.095 382.898 834.341 383.257C831.588 383.616 828.236 383.796 824.286 383.796ZM894.983 383.796C885.526 383.796 877.266 382.06 870.204 378.588C863.261 375.117 857.814 370.329 853.864 364.224C850.033 357.999 848.118 350.877 848.118 342.857C848.118 333.52 850.153 324.901 854.223 317C858.293 308.98 864.338 302.576 872.358 297.788C880.498 292.88 890.613 290.426 902.703 290.426C912.16 290.426 920.36 292.162 927.303 295.633C934.365 299.105 939.812 303.953 943.642 310.177C947.593 316.282 949.568 323.345 949.568 331.365C949.568 340.582 947.533 349.201 943.463 357.221C939.393 365.241 933.288 371.705 925.148 376.613C917.128 381.401 907.073 383.796 894.983 383.796ZM895.342 356.144C897.616 356.144 899.591 355.126 901.267 353.091C903.063 351.056 904.559 348.483 905.756 345.37C906.953 342.138 907.851 338.906 908.449 335.674C909.048 332.323 909.347 329.39 909.347 326.876C909.347 324.602 908.988 322.866 908.27 321.669C907.671 320.352 906.833 319.454 905.756 318.976C904.679 318.377 903.482 318.078 902.165 318.078C899.89 318.078 897.855 319.095 896.06 321.13C894.384 323.165 892.948 325.799 891.751 329.031C890.553 332.143 889.656 335.375 889.057 338.727C888.459 341.959 888.159 344.832 888.159 347.346C888.159 349.5 888.459 351.236 889.057 352.553C889.775 353.869 890.673 354.827 891.751 355.426C892.828 355.904 894.025 356.144 895.342 356.144ZM1027.59 290.426C1032.98 290.426 1037.65 291.683 1041.6 294.197C1045.55 296.591 1048.6 300.242 1050.76 305.15C1053.03 310.058 1054.17 316.222 1054.17 323.644C1054.17 330.587 1053.21 337.649 1051.29 344.832C1049.5 351.894 1046.86 358.358 1043.39 364.224C1039.92 370.089 1035.67 374.818 1030.64 378.409C1025.62 382 1019.93 383.796 1013.59 383.796C1010 383.796 1006.28 383.197 1002.45 382C998.743 380.923 995.452 379.007 992.579 376.254C989.826 373.381 987.97 369.431 987.012 364.403L981.985 382H942.123L971.211 256.31H1012.51L1001.02 306.586C1004.13 301.439 1007.96 297.489 1012.51 294.735C1017.06 291.862 1022.09 290.426 1027.59 290.426ZM999.581 354.528C1002.1 354.528 1004.19 353.63 1005.87 351.834C1007.66 349.919 1009.1 347.645 1010.18 345.011C1011.25 342.258 1012.03 339.505 1012.51 336.752C1013.11 333.879 1013.41 331.545 1013.41 329.749C1013.41 327.594 1013.17 325.799 1012.69 324.362C1012.21 322.806 1011.37 321.609 1010.18 320.771C1009.1 319.933 1007.66 319.514 1005.87 319.514C1003.71 319.514 1001.8 320.412 1000.12 322.208C998.444 323.883 997.008 326.098 995.811 328.851C994.733 331.604 993.895 334.417 993.297 337.29C992.818 340.163 992.579 342.797 992.579 345.191C992.579 348.183 993.177 350.518 994.374 352.194C995.571 353.75 997.307 354.528 999.581 354.528Z" fill="#FFFF00"/>
<path d="M208.409 382L203.538 380.873L202.12 387H208.409V382ZM237.497 256.31V251.31H233.522L232.626 255.183L237.497 256.31ZM278.795 256.31L283.666 257.438L285.085 251.31H278.795V256.31ZM265.328 314.487L269.801 316.723L270.066 316.192L270.2 315.614L265.328 314.487ZM262.276 320.592L257.46 319.248L266.748 322.828L262.276 320.592ZM268.74 306.047L272.967 308.717L272.967 308.717L268.74 306.047ZM280.232 294.915L282.804 299.202L282.843 299.179L282.882 299.155L280.232 294.915ZM311.475 294.376L308.642 298.496L308.671 298.517L308.701 298.536L311.475 294.376ZM319.914 321.669L324.784 322.8L324.786 322.793L319.914 321.669ZM305.908 382V387H309.881L310.779 383.131L305.908 382ZM264.61 382L259.742 380.859L258.302 387H264.61V382ZM276.82 329.928L281.688 331.07L281.697 331.03L281.706 330.991L276.82 329.928ZM276.102 323.464L271.761 325.945L271.868 326.133L271.991 326.311L276.102 323.464ZM266.585 322.387L269.27 326.605L269.401 326.522L269.526 326.431L266.585 322.387ZM263.174 326.337L258.762 323.984L258.731 324.042L258.702 324.101L263.174 326.337ZM261.019 332.801L265.892 333.922L265.895 333.91L261.019 332.801ZM249.707 382V387H253.688L254.58 383.12L249.707 382ZM213.28 383.127L242.368 257.438L232.626 255.183L203.538 380.873L213.28 383.127ZM237.497 261.31H278.795V251.31H237.497V261.31ZM273.924 255.183L260.457 313.359L270.2 315.614L283.666 257.438L273.924 255.183ZM260.856 312.251L257.804 318.355L266.748 322.828L269.801 316.723L260.856 312.251ZM267.092 321.936C268.397 317.26 270.352 312.858 272.967 308.717L264.513 303.377C261.382 308.334 259.028 313.629 257.46 319.248L267.092 321.936ZM272.967 308.717C275.407 304.855 278.66 301.689 282.804 299.202L277.659 290.627C272.227 293.887 267.819 298.142 264.513 303.377L272.967 308.717ZM282.882 299.155C286.724 296.754 291.566 295.426 297.649 295.426V285.426C290.085 285.426 283.316 287.091 277.582 290.675L282.882 299.155ZM297.649 295.426C302.189 295.426 305.771 296.523 308.642 298.496L314.307 290.256C309.517 286.962 303.882 285.426 297.649 285.426V295.426ZM308.701 298.536C311.69 300.529 313.772 303.255 314.991 306.91L324.478 303.748C322.584 298.066 319.159 293.49 314.248 290.216L308.701 298.536ZM314.991 306.91C316.181 310.482 316.332 314.954 315.042 320.545L324.786 322.793C326.368 315.934 326.399 309.513 324.478 303.748L314.991 306.91ZM315.043 320.538L301.038 380.869L310.779 383.131L324.784 322.8L315.043 320.538ZM305.908 377H264.61V387H305.908V377ZM269.478 383.141L281.688 331.07L271.952 328.787L259.742 380.859L269.478 383.141ZM281.706 330.991C282.455 327.546 282.396 323.772 280.213 320.618L271.991 326.311C271.993 326.313 272.078 326.425 272.12 326.8C272.165 327.204 272.151 327.87 271.934 328.866L281.706 330.991ZM280.443 320.984C278.37 317.356 274.758 315.951 271.074 315.951V325.951C271.704 325.951 271.913 326.062 271.891 326.051C271.877 326.044 271.838 326.021 271.797 325.981C271.756 325.942 271.747 325.921 271.761 325.945L280.443 320.984ZM271.074 315.951C268.375 315.951 265.842 316.745 263.644 318.343L269.526 326.431C269.962 326.114 270.422 325.951 271.074 325.951V315.951ZM263.901 318.169C261.669 319.589 260.005 321.653 258.762 323.984L267.585 328.69C268.257 327.43 268.868 326.861 269.27 326.605L263.901 318.169ZM258.702 324.101C257.625 326.255 256.795 328.825 256.143 331.693L265.895 333.91C266.44 331.511 267.047 329.772 267.646 328.573L258.702 324.101ZM256.146 331.681L244.834 380.88L254.58 383.12L265.892 333.922L256.146 331.681ZM249.707 377H208.409V387H249.707V377ZM307.304 418.809L308.489 413.952L308.475 413.948L308.462 413.945L307.304 418.809ZM295.633 414.32L290.94 412.595L289.565 416.333L292.901 418.508L295.633 414.32ZM305.868 386.489L309.058 382.639L303.615 378.129L301.175 384.763L305.868 386.489ZM330.287 390.439L328.636 385.72L328.597 385.733L328.559 385.747L330.287 390.439ZM335.494 386.668L339.7 389.372L339.742 389.307L339.782 389.241L335.494 386.668ZM336.033 385.771L340.321 388.343L341.271 386.759L340.963 384.938L336.033 385.771ZM320.232 292.222V287.222H314.317L315.302 293.054L320.232 292.222ZM362.248 292.222L367.247 292.338L367.366 287.222H362.248V292.222ZM361.171 338.547L366.165 338.797L366.168 338.73L366.17 338.663L361.171 338.547ZM360.094 360.094L355.1 359.844L364.755 361.904L360.094 360.094ZM368.533 338.368L363.892 336.508L363.882 336.532L363.872 336.557L368.533 338.368ZM387.027 292.222V287.222H383.645L382.386 290.361L387.027 292.222ZM430.121 292.222L434.477 294.676L438.678 287.222H430.121V292.222ZM379.127 382.718L374.771 380.264L374.766 380.272L374.761 380.28L379.127 382.718ZM363.326 404.804L359.752 401.307L359.713 401.347L359.676 401.387L363.326 404.804ZM345.729 416.834L343.993 412.145L343.955 412.159L343.917 412.174L345.729 416.834ZM323.105 415.605C317.834 415.605 312.968 415.044 308.489 413.952L306.119 423.667C311.456 424.968 317.124 425.605 323.105 425.605V415.605ZM308.462 413.945C303.711 412.814 300.441 411.487 298.364 410.132L292.901 418.508C296.331 420.745 300.842 422.41 306.146 423.673L308.462 413.945ZM300.326 416.046L310.56 388.215L301.175 384.763L290.94 412.595L300.326 416.046ZM302.677 390.339C307.973 394.727 314.703 396.696 322.387 396.696V386.696C316.425 386.696 312.141 385.194 309.058 382.639L302.677 390.339ZM322.387 396.696C325.836 396.696 329.075 396.214 332.016 395.131L328.559 385.747C326.951 386.34 324.923 386.696 322.387 386.696V396.696ZM331.939 395.158C335.094 394.054 337.872 392.216 339.7 389.372L331.289 383.965C330.962 384.472 330.269 385.148 328.636 385.72L331.939 395.158ZM339.782 389.241L340.321 388.343L331.746 383.198L331.207 384.096L339.782 389.241ZM340.963 384.938L325.162 291.389L315.302 293.054L331.103 386.603L340.963 384.938ZM320.232 297.222H362.248V287.222H320.232V297.222ZM357.25 292.105L356.172 338.431L366.17 338.663L367.247 292.338L357.25 292.105ZM356.177 338.298L355.1 359.844L365.088 360.344L366.165 338.797L356.177 338.298ZM364.755 361.904L373.194 340.178L363.872 336.557L355.433 358.284L364.755 361.904ZM373.174 340.228L391.668 294.082L382.386 290.361L363.892 336.508L373.174 340.228ZM387.027 297.222H430.121V287.222H387.027V297.222ZM425.765 289.767L374.771 380.264L383.483 385.173L434.477 294.676L425.765 289.767ZM374.761 380.28C369.756 389.243 364.739 396.21 359.752 401.307L366.9 408.3C372.686 402.385 378.203 394.628 383.492 385.156L374.761 380.28ZM359.676 401.387C354.876 406.514 349.647 410.051 343.993 412.145L347.466 421.523C354.74 418.829 361.242 414.346 366.976 408.221L359.676 401.387ZM343.917 412.174C338.152 414.416 331.249 415.605 323.105 415.605V425.605C332.199 425.605 340.378 424.28 347.541 421.494L343.917 412.174ZM398.474 419.707L393.602 418.582L392.187 424.707H398.474V419.707ZM427.921 292.222V287.222H423.945L423.05 291.096L427.921 292.222ZM465.628 292.222L470.551 293.099L471.598 287.222H465.628V292.222ZM459.164 328.492L454.646 330.632L461.342 344.77L464.087 329.369L459.164 328.492ZM457.548 325.08L452.63 324.179L452.34 325.764L453.03 327.221L457.548 325.08ZM464.551 306.586L460.406 303.79L460.383 303.824L460.361 303.858L464.551 306.586ZM476.94 294.735L479.433 299.07L479.45 299.06L479.466 299.05L476.94 294.735ZM506.567 294.197L503.883 298.415L503.929 298.444L503.976 298.473L506.567 294.197ZM515.725 305.15L511.146 307.16L511.167 307.206L511.188 307.252L515.725 305.15ZM516.443 344.832L521.289 346.064L521.291 346.054L521.294 346.044L516.443 344.832ZM508.363 364.224L504.099 361.613L504.079 361.645L504.06 361.677L508.363 364.224ZM495.794 378.409L492.841 374.374L492.841 374.374L495.794 378.409ZM466.526 381.641L464.785 386.328L464.845 386.35L464.904 386.371L466.526 381.641ZM455.932 373.561L451.83 376.42L451.88 376.491L451.932 376.561L455.932 373.561ZM451.802 357.221L447.312 355.022L446.802 356.062V357.221H451.802ZM456.112 348.423L460.985 349.54L451.622 346.224L456.112 348.423ZM439.772 419.707V424.707H443.756L444.646 420.824L439.772 419.707ZM470.835 351.834L467.188 348.415L467.18 348.423L470.835 351.834ZM475.145 345.011L479.773 346.904L479.787 346.869L479.801 346.833L475.145 345.011ZM477.479 336.752L472.584 335.732L472.567 335.813L472.553 335.895L477.479 336.752ZM477.659 324.362L472.88 325.833L472.897 325.888L472.915 325.943L477.659 324.362ZM475.145 320.771L472.075 324.718L472.174 324.795L472.278 324.867L475.145 320.771ZM465.09 322.208L468.625 325.743L468.686 325.682L468.745 325.619L465.09 322.208ZM460.78 328.851L456.195 326.858L456.158 326.943L456.124 327.029L460.78 328.851ZM458.266 337.29L453.372 336.271L453.351 336.369L453.335 336.468L458.266 337.29ZM459.344 352.194L455.275 355.1L455.327 355.172L455.381 355.242L459.344 352.194ZM403.346 420.832L432.793 293.347L423.05 291.096L393.602 418.582L403.346 420.832ZM427.921 297.222H465.628V287.222H427.921V297.222ZM460.706 291.344L454.242 327.615L464.087 329.369L470.551 293.099L460.706 291.344ZM463.683 326.352L462.067 322.94L453.03 327.221L454.646 330.632L463.683 326.352ZM462.466 325.982C463.686 319.33 465.812 313.813 468.741 309.314L460.361 303.858C456.587 309.654 454.044 316.466 452.63 324.179L462.466 325.982ZM468.696 309.382C471.795 304.788 475.384 301.398 479.433 299.07L474.448 290.401C468.921 293.579 464.25 298.09 460.406 303.79L468.696 309.382ZM479.466 299.05C483.634 296.611 487.973 295.426 492.562 295.426V285.426C486.138 285.426 480.062 287.114 474.415 290.42L479.466 299.05ZM492.562 295.426C497.144 295.426 500.85 296.485 503.883 298.415L509.252 289.978C504.384 286.881 498.753 285.426 492.562 285.426V295.426ZM503.976 298.473C506.911 300.252 509.337 303.038 511.146 307.16L520.303 303.14C517.803 297.446 514.124 292.93 509.159 289.921L503.976 298.473ZM511.188 307.252C513.066 311.304 514.136 316.694 514.136 323.644H524.136C524.136 315.751 522.932 308.811 520.261 303.047L511.188 307.252ZM514.136 323.644C514.136 330.152 513.295 336.807 511.592 343.619L521.294 346.044C523.182 338.492 524.136 331.022 524.136 323.644H514.136ZM511.597 343.6C509.918 350.205 507.413 356.2 504.099 361.613L512.627 366.835C516.495 360.516 519.377 353.583 521.289 346.064L511.597 343.6ZM504.06 361.677C500.892 367.031 497.141 371.228 492.841 374.374L498.746 382.444C504.263 378.408 508.891 373.148 512.666 366.77L504.06 361.677ZM492.841 374.374C488.829 377.31 484.247 378.796 478.916 378.796V388.796C486.273 388.796 492.943 386.69 498.746 382.444L492.841 374.374ZM478.916 378.796C475.444 378.796 471.861 378.184 468.148 376.911L464.904 386.371C469.57 387.97 474.247 388.796 478.916 388.796V378.796ZM468.267 376.954C465.041 375.756 462.273 373.681 459.932 370.561L451.932 376.561C455.338 381.102 459.631 384.414 464.785 386.328L468.267 376.954ZM460.034 370.702C458.072 367.886 456.802 363.574 456.802 357.221H446.802C446.802 364.754 448.286 371.335 451.83 376.42L460.034 370.702ZM456.293 359.42L460.602 350.622L451.622 346.224L447.312 355.022L456.293 359.42ZM451.238 347.306L434.899 418.59L444.646 420.824L460.985 349.54L451.238 347.306ZM439.772 414.707H398.474V424.707H439.772V414.707ZM464.551 359.528C468.414 359.528 471.844 358.081 474.491 355.246L467.18 348.423C466.475 349.179 465.716 349.528 464.551 349.528V359.528ZM474.483 355.254C476.729 352.858 478.484 350.055 479.773 346.904L470.517 343.118C469.651 345.235 468.533 346.98 467.188 348.415L474.483 355.254ZM479.801 346.833C480.993 343.786 481.866 340.71 482.405 337.608L472.553 335.895C472.135 338.3 471.451 340.73 470.489 343.189L479.801 346.833ZM482.374 337.771C483.004 334.745 483.377 332.033 483.377 329.749H473.377C473.377 331.056 473.151 333.012 472.584 335.732L482.374 337.771ZM483.377 329.749C483.377 327.265 483.106 324.893 482.402 322.781L472.915 325.943C473.169 326.704 473.377 327.924 473.377 329.749H483.377ZM482.438 322.892C481.671 320.4 480.225 318.224 478.012 316.675L472.278 324.867C472.459 324.994 472.689 325.212 472.88 325.833L482.438 322.892ZM478.215 316.824C476.017 315.115 473.391 314.514 470.835 314.514V324.514C471.351 324.514 471.676 324.575 471.859 324.628C471.949 324.655 472.004 324.679 472.033 324.693C472.062 324.708 472.073 324.716 472.075 324.718L478.215 316.824ZM470.835 314.514C467.095 314.514 463.91 316.143 461.434 318.796L468.745 325.619C469.621 324.681 470.266 324.514 470.835 324.514V314.514ZM461.554 318.672C459.334 320.892 457.578 323.676 456.195 326.858L465.366 330.845C466.377 328.52 467.494 326.875 468.625 325.743L461.554 318.672ZM456.124 327.029C454.946 330.041 454.028 333.122 453.372 336.271L463.161 338.31C463.702 335.713 464.46 333.168 465.437 330.673L456.124 327.029ZM453.335 336.468C452.82 339.557 452.548 342.47 452.548 345.191H462.548C462.548 343.124 462.756 340.77 463.198 338.112L453.335 336.468ZM452.548 345.191C452.548 348.774 453.254 352.27 455.275 355.1L463.413 349.287C463.039 348.765 462.548 347.593 462.548 345.191H452.548ZM455.381 355.242C457.682 358.234 461.003 359.528 464.551 359.528V349.528C463.551 349.528 463.4 349.266 463.307 349.145L455.381 355.242ZM541.247 378.768L539.195 383.328L539.209 383.334L539.223 383.34L541.247 378.768ZM524.369 364.763L520.184 367.499L520.196 367.517L520.208 367.536L524.369 364.763ZM524.728 315.205L520.366 312.76L520.36 312.771L520.354 312.782L524.728 315.205ZM543.222 296.89L540.856 292.486L540.842 292.493L540.828 292.501L543.222 296.89ZM596.012 295.633L593.745 300.09L593.776 300.105L593.807 300.121L596.012 295.633ZM611.454 309.639L607.129 312.147L607.147 312.179L607.166 312.211L611.454 309.639ZM616.481 337.649L621.459 338.123L621.459 338.123L616.481 337.649ZM615.045 345.011V350.011H618.765L619.834 346.448L615.045 345.011ZM546.454 345.011L541.455 345.07L541.513 350.011H546.454V345.011ZM546.275 329.749V324.749H541.215L541.275 329.808L546.275 329.749ZM586.495 329.749L588.279 334.42L586.495 324.749V329.749ZM576.62 333.52L571.911 331.838L568.259 342.064L578.403 338.191L576.62 333.52ZM577.518 329.39L572.548 328.838L572.518 329.113V329.39H577.518ZM576.62 321.13L572.068 323.199L572.186 323.458L572.332 323.703L576.62 321.13ZM574.106 318.437L571.678 322.808L571.872 322.916L572.075 323.006L574.106 318.437ZM562.794 320.232L559.486 316.483L559.429 316.533L559.374 316.585L562.794 320.232ZM558.305 327.235L553.623 325.48L553.591 325.566L553.562 325.654L558.305 327.235ZM556.33 336.393L551.36 335.84L551.36 335.84L556.33 336.393ZM557.228 352.014L561.569 349.533L561.569 349.533L557.228 352.014ZM561.178 355.605L559.208 360.201L559.264 360.225L559.321 360.248L561.178 355.605ZM574.286 354.348L577.688 358.012L577.697 358.004L574.286 354.348ZM578.056 348.602L579.593 343.844L574.879 342.322L573.313 347.021L578.056 348.602ZM612.531 359.735L617.24 361.417L618.974 356.561L614.068 354.977L612.531 359.735ZM603.015 372.663L599.916 368.739L599.916 368.739L603.015 372.663ZM586.675 380.923L588.037 385.734L588.078 385.722L588.12 385.709L586.675 380.923ZM566.026 378.616C557.399 378.616 549.844 377.105 543.271 374.196L539.223 383.34C547.254 386.895 556.218 388.616 566.026 388.616V378.616ZM543.299 374.208C536.908 371.332 532.039 367.255 528.529 361.989L520.208 367.536C524.838 374.48 531.222 379.74 539.195 383.328L543.299 374.208ZM528.554 362.026C525.088 356.727 523.264 350.347 523.264 342.677H513.264C513.264 352.005 515.509 360.349 520.184 367.499L528.554 362.026ZM523.264 342.677C523.264 332.834 525.273 324.541 529.102 317.627L520.354 312.782C515.564 321.43 513.264 331.452 513.264 342.677H523.264ZM529.089 317.65C533.062 310.564 538.547 305.136 545.616 301.28L540.828 292.501C532.096 297.263 525.252 304.045 520.366 312.76L529.089 317.65ZM545.589 301.294C552.767 297.438 561.264 295.426 571.233 295.426V285.426C559.894 285.426 549.718 287.724 540.856 292.486L545.589 301.294ZM571.233 295.426C580.346 295.426 587.786 297.058 593.745 300.09L598.279 291.177C590.592 287.265 581.513 285.426 571.233 285.426V295.426ZM593.807 300.121C599.835 303.082 604.202 307.101 607.129 312.147L615.779 307.13C611.763 300.206 605.835 294.888 598.216 291.145L593.807 300.121ZM607.166 312.211C610.232 317.321 611.84 323.351 611.84 330.467H621.84C621.84 321.783 619.858 313.927 615.741 307.066L607.166 312.211ZM611.84 330.467C611.84 332.567 611.73 334.802 611.504 337.175L621.459 338.123C621.712 335.469 621.84 332.916 621.84 330.467H611.84ZM611.504 337.175C611.295 339.366 610.879 341.498 610.256 343.575L619.834 346.448C620.647 343.737 621.189 340.96 621.459 338.123L611.504 337.175ZM615.045 340.011H546.454V350.011H615.045V340.011ZM551.454 344.952L551.274 329.69L541.275 329.808L541.455 345.07L551.454 344.952ZM546.275 334.749H586.495V324.749H546.275V334.749ZM584.712 325.078L574.836 328.849L578.403 338.191L588.279 334.42L584.712 325.078ZM581.328 335.201C582.011 333.29 582.518 331.293 582.518 329.39H572.518C572.518 329.642 572.425 330.397 571.911 331.838L581.328 335.201ZM582.487 329.942C582.624 328.705 582.697 327.502 582.697 326.337H572.697C572.697 327.088 572.65 327.92 572.548 328.838L582.487 329.942ZM582.697 326.337C582.697 323.669 582.299 320.877 580.907 318.558L572.332 323.703C572.332 323.703 572.339 323.714 572.35 323.738C572.362 323.763 572.378 323.8 572.398 323.853C572.437 323.96 572.485 324.119 572.531 324.343C572.626 324.799 572.697 325.45 572.697 326.337H582.697ZM581.172 319.061C580.187 316.894 578.571 314.95 576.137 313.868L572.075 323.006C572.032 322.987 571.989 322.962 571.951 322.935C571.913 322.907 571.892 322.886 571.887 322.881C571.877 322.871 571.954 322.949 572.068 323.199L581.172 319.061ZM576.534 314.066C574.663 313.027 572.621 312.539 570.515 312.539V322.539C571.042 322.539 571.394 322.65 571.678 322.808L576.534 314.066ZM570.515 312.539C566.375 312.539 562.568 313.764 559.486 316.483L566.102 323.982C567.09 323.11 568.43 322.539 570.515 322.539V312.539ZM559.374 316.585C556.811 318.987 554.925 322.008 553.623 325.48L562.987 328.991C563.84 326.716 564.946 325.069 566.214 323.88L559.374 316.585ZM553.562 325.654C552.485 328.885 551.756 332.284 551.36 335.84L561.299 336.945C561.622 334.037 562.21 331.332 563.048 328.816L553.562 325.654ZM551.36 335.84C550.984 339.224 550.791 342.403 550.791 345.37H560.791C560.791 342.831 560.957 340.025 561.299 336.945L551.36 335.84ZM550.791 345.37C550.791 348.644 551.352 351.809 552.886 354.495L561.569 349.533C561.188 348.868 560.791 347.603 560.791 345.37H550.791ZM552.886 354.495C554.35 357.056 556.472 359.028 559.208 360.201L563.147 351.009C562.532 350.746 562.021 350.324 561.569 349.533L552.886 354.495ZM559.321 360.248C561.771 361.228 564.385 361.682 567.103 361.682V351.682C565.512 351.682 564.176 351.419 563.035 350.963L559.321 360.248ZM567.103 361.682C571.016 361.682 574.797 360.697 577.688 358.012L570.883 350.684C570.423 351.112 569.415 351.682 567.103 351.682V361.682ZM577.697 358.004C580.052 355.806 581.796 353.194 582.8 350.184L573.313 347.021C572.88 348.321 572.11 349.539 570.874 350.693L577.697 358.004ZM576.52 353.36L610.995 364.493L614.068 354.977L579.593 343.844L576.52 353.36ZM607.822 358.053C606.369 362.122 603.794 365.677 599.916 368.739L606.113 376.587C611.333 372.466 615.102 367.404 617.24 361.417L607.822 358.053ZM599.916 368.739C595.925 371.89 591.059 374.376 585.23 376.136L588.12 385.709C594.979 383.639 601.007 380.619 606.113 376.587L599.916 368.739ZM585.313 376.112C579.464 377.767 573.044 378.616 566.026 378.616V388.616C573.851 388.616 581.198 387.669 588.037 385.734L585.313 376.112ZM609.459 382L604.588 380.87L603.166 387H609.459V382ZM630.288 292.222V287.222H626.315L625.417 291.092L630.288 292.222ZM667.456 292.222L672.368 293.156L673.497 287.222H667.456V292.222ZM659.735 332.801L654.849 333.864L664.647 333.736L659.735 332.801ZM658.837 328.672L653.991 327.441L653.701 328.583L653.951 329.734L658.837 328.672ZM666.199 308.741L661.764 306.431L661.764 306.431L666.199 308.741ZM677.691 295.274L674.893 291.13L674.869 291.146L674.845 291.163L677.691 295.274ZM700.135 290.965L698.82 295.788L699.028 295.845L699.241 295.884L700.135 290.965ZM703.367 292.042L708.18 293.399L709.24 289.639L705.848 287.701L703.367 292.042ZM693.851 325.799L691.615 330.271L697.023 332.975L698.663 327.155L693.851 325.799ZM673.202 325.978L675.15 330.583L675.191 330.566L675.232 330.547L673.202 325.978ZM664.763 332.622L660.873 329.48L660.836 329.526L660.799 329.573L664.763 332.622ZM659.196 345.37L654.339 344.183L654.331 344.215L654.324 344.248L659.196 345.37ZM650.757 382V387H654.736L655.629 383.123L650.757 382ZM614.33 383.13L635.158 293.352L625.417 291.092L604.588 380.87L614.33 383.13ZM630.288 297.222H667.456V287.222H630.288V297.222ZM662.544 291.287L654.823 331.867L664.647 333.736L672.368 293.156L662.544 291.287ZM664.621 331.739L663.723 327.609L653.951 329.734L654.849 333.864L664.621 331.739ZM663.683 329.902C665.522 322.663 667.851 316.393 670.634 311.05L661.764 306.431C658.562 312.58 655.983 319.597 653.991 327.441L663.683 329.902ZM670.634 311.05C673.304 305.923 676.625 302.093 680.537 299.385L674.845 291.163C669.419 294.919 665.079 300.067 661.764 306.431L670.634 311.05ZM680.488 299.418C684.309 296.839 689.097 295.426 695.108 295.426V285.426C687.472 285.426 680.648 287.245 674.893 291.13L680.488 299.418ZM695.108 295.426C696.893 295.426 698.086 295.588 698.82 295.788L701.451 286.141C699.551 285.623 697.392 285.426 695.108 285.426V295.426ZM699.241 295.884C700.199 296.058 700.691 296.271 700.887 296.383L705.848 287.701C704.368 286.855 702.705 286.35 701.03 286.045L699.241 295.884ZM698.555 290.685L689.038 324.442L698.663 327.155L708.18 293.399L698.555 290.685ZM696.087 321.327C694.425 320.495 692.568 319.897 690.589 319.473L688.494 329.251C689.866 329.545 690.883 329.905 691.615 330.271L696.087 321.327ZM690.589 319.473C688.426 319.01 685.819 318.824 682.898 318.824V328.824C685.483 328.824 687.305 328.997 688.494 329.251L690.589 319.473ZM682.898 318.824C678.903 318.824 674.982 319.716 671.171 321.409L675.232 330.547C677.886 329.368 680.429 328.824 682.898 328.824V318.824ZM671.254 321.373C667.256 323.065 663.809 325.845 660.873 329.48L668.652 335.764C670.744 333.174 672.923 331.525 675.15 330.583L671.254 321.373ZM660.799 329.573C657.844 333.415 655.758 338.379 654.339 344.183L664.053 346.558C665.268 341.588 666.893 338.053 668.726 335.67L660.799 329.573ZM654.324 344.248L645.885 380.877L655.629 383.123L664.069 346.493L654.324 344.248ZM650.757 377H609.459V387H650.757V377ZM707.365 418.63L706.153 423.48L706.153 423.48L707.365 418.63ZM693.18 412.345L690.353 416.469L690.353 416.469L693.18 412.345ZM683.484 401.213L687.956 398.977L687.944 398.952L687.932 398.929L683.484 401.213ZM680.611 385.232L680.352 380.239L675.878 380.471L675.62 384.944L680.611 385.232ZM722.089 383.077L727.053 383.679L727.768 377.776L721.83 378.084L722.089 383.077ZM722.448 392.414L727.237 390.978L727.227 390.943L727.216 390.909L722.448 392.414ZM733.581 394.21L730.581 390.21L730.392 390.351L730.217 390.51L733.581 394.21ZM737.172 389.182L732.653 387.042L732.606 387.141L732.564 387.242L737.172 389.182ZM740.045 380.204L735.177 379.063L735.172 379.083L735.167 379.103L740.045 380.204ZM748.125 345.73L752.285 342.956L745.888 333.361L743.257 344.589L748.125 345.73ZM749.202 347.346L754.123 348.23L754.479 346.248L753.362 344.572L749.202 347.346ZM738.608 371.406L742.223 374.86L742.223 374.86L738.608 371.406ZM703.954 375.895L706.382 371.524L706.382 371.524L703.954 375.895ZM693.719 364.942L698.169 362.663L698.169 362.663L693.719 364.942ZM692.821 326.158L697.622 327.554L697.625 327.543L697.629 327.531L692.821 326.158ZM701.26 308.023L697.143 305.186L697.143 305.186L701.26 308.023ZM714.727 295.274L717.271 299.579L717.307 299.557L717.342 299.536L714.727 295.274ZM743.815 293.119L741.579 297.591L741.608 297.606L741.637 297.62L743.815 293.119ZM752.973 302.277L748.602 304.705L748.617 304.731L748.631 304.757L752.973 302.277ZM756.025 319.335L760.239 322.027L760.953 320.909L761.019 319.584L756.025 319.335ZM751.895 325.799L747.023 324.678L756.109 328.491L751.895 325.799ZM759.616 292.222V287.222H755.636L754.743 291.101L759.616 292.222ZM800.914 292.222L805.787 293.344L807.198 287.222H800.914V292.222ZM781.881 374.818L777.009 373.695L777.007 373.703L777.005 373.712L781.881 374.818ZM770.39 402.11L766.416 399.076L766.403 399.093L766.39 399.11L770.39 402.11ZM751.177 416.295L749.509 411.582L749.465 411.597L749.422 411.614L751.177 416.295ZM745.252 347.346L749.252 350.346L749.252 350.346L745.252 347.346ZM749.202 338.727L744.382 337.397L744.366 337.455L744.351 337.514L749.202 338.727ZM749.741 324.003L745.125 325.926L745.156 326L745.189 326.072L749.741 324.003ZM747.227 320.771L750 316.611L750 316.611L747.227 320.771ZM735.915 323.644L739.892 326.674L739.926 326.63L739.958 326.585L735.915 323.644ZM731.785 332.442L736.625 333.697L736.63 333.676L736.636 333.655L731.785 332.442ZM732.144 348.243L727.786 350.695L727.879 350.859L727.984 351.017L732.144 348.243ZM723.525 415.605C718.422 415.605 713.443 414.995 708.578 413.779L706.153 423.48C711.822 424.898 717.616 425.605 723.525 425.605V415.605ZM708.578 413.779C703.848 412.596 699.674 410.735 696.008 408.221L690.353 416.469C695.066 419.701 700.348 422.029 706.153 423.48L708.578 413.779ZM696.008 408.221C692.518 405.829 689.852 402.768 687.956 398.977L679.012 403.449C681.665 408.755 685.463 413.116 690.353 416.469L696.008 408.221ZM687.932 398.929C686.156 395.47 685.282 391.076 685.603 385.52L675.62 384.944C675.222 391.837 676.264 398.097 679.036 403.497L687.932 398.929ZM680.871 390.225L722.348 388.071L721.83 378.084L680.352 380.239L680.871 390.225ZM717.125 382.476C716.611 386.722 716.65 390.657 717.68 393.92L727.216 390.909C726.81 389.623 726.61 387.334 727.053 383.679L717.125 382.476ZM717.659 393.851C718.387 396.277 719.94 398.237 722.174 399.478C724.257 400.636 726.629 401.005 728.912 401.005V391.005C727.604 391.005 727.103 390.777 727.031 390.737C727.019 390.73 727.085 390.767 727.16 390.862C727.235 390.955 727.249 391.016 727.237 390.978L717.659 393.851ZM728.912 401.005C731.939 401.005 734.698 399.952 736.944 397.91L730.217 390.51C729.83 390.862 729.476 391.005 728.912 391.005V401.005ZM736.581 398.21C738.943 396.438 740.602 393.921 741.78 391.123L732.564 387.242C731.827 388.992 731.091 389.827 730.581 390.21L736.581 398.21ZM741.69 391.323C742.983 388.594 744.04 385.213 744.922 381.306L735.167 379.103C734.374 382.618 733.515 385.222 732.653 387.042L741.69 391.323ZM744.913 381.345L752.993 346.87L743.257 344.589L735.177 379.063L744.913 381.345ZM743.964 348.503L745.042 350.119L753.362 344.572L752.285 342.956L743.964 348.503ZM744.281 346.461C742.465 356.564 739.22 363.528 734.993 367.952L742.223 374.86C748.291 368.51 752.109 359.435 754.123 348.23L744.281 346.461ZM734.993 367.952C730.911 372.224 725.519 374.486 718.318 374.486V384.486C727.876 384.486 736.01 381.362 742.223 374.86L734.993 367.952ZM718.318 374.486C713.841 374.486 709.898 373.478 706.382 371.524L701.525 380.266C706.628 383.101 712.261 384.486 718.318 384.486V374.486ZM706.382 371.524C703.04 369.667 700.287 366.797 698.169 362.663L689.269 367.221C692.179 372.903 696.249 377.334 701.525 380.266L706.382 371.524ZM698.169 362.663C696.125 358.671 694.948 353.294 694.948 346.268H684.948C684.948 354.326 686.286 361.397 689.269 367.221L698.169 362.663ZM694.948 346.268C694.948 339.92 695.838 333.687 697.622 327.554L688.02 324.761C685.974 331.796 684.948 338.97 684.948 346.268H694.948ZM697.629 327.531C699.405 321.315 701.995 315.77 705.378 310.859L697.143 305.186C693.104 311.048 690.068 317.593 688.014 324.784L697.629 327.531ZM705.378 310.859C708.706 306.028 712.671 302.296 717.271 299.579L712.183 290.969C706.249 294.476 701.236 299.244 697.143 305.186L705.378 310.859ZM717.342 299.536C721.742 296.836 726.863 295.426 732.862 295.426V285.426C725.215 285.426 718.246 287.248 712.112 291.012L717.342 299.536ZM732.862 295.426C735.735 295.426 738.624 296.114 741.579 297.591L746.051 288.647C741.824 286.534 737.412 285.426 732.862 285.426V295.426ZM741.637 297.62C744.252 298.885 746.608 301.116 748.602 304.705L757.343 299.849C754.549 294.819 750.801 290.945 745.993 288.619L741.637 297.62ZM748.631 304.757C750.373 307.805 751.365 312.418 751.031 319.085L761.019 319.584C761.404 311.886 760.36 305.127 757.314 299.796L748.631 304.757ZM751.812 316.643L747.682 323.107L756.109 328.491L760.239 322.027L751.812 316.643ZM756.768 326.919L764.489 293.342L754.743 291.101L747.023 324.678L756.768 326.919ZM759.616 297.222H800.914V287.222H759.616V297.222ZM796.042 291.099L777.009 373.695L786.754 375.94L805.787 293.344L796.042 291.099ZM777.005 373.712C774.466 384.906 770.86 393.256 766.416 399.076L774.364 405.145C779.974 397.798 784.029 387.952 786.758 375.924L777.005 373.712ZM766.39 399.11C761.944 405.038 756.346 409.163 749.509 411.582L752.845 421.009C761.57 417.922 768.78 412.59 774.39 405.11L766.39 399.11ZM749.422 411.614C742.468 414.221 733.879 415.605 723.525 415.605V425.605C734.719 425.605 744.564 424.115 752.933 420.977L749.422 411.614ZM738.249 355.937C742.771 355.937 746.558 353.937 749.252 350.346L741.252 344.346C740.354 345.542 739.473 345.937 738.249 345.937V355.937ZM749.252 350.346C751.504 347.342 753.078 343.839 754.053 339.939L744.351 337.514C743.65 340.318 742.591 342.561 741.252 344.346L749.252 350.346ZM754.022 340.056C755.081 336.218 755.638 332.477 755.638 328.851H745.638C745.638 331.45 745.238 334.293 744.382 337.397L754.022 340.056ZM755.638 328.851C755.638 326.442 755.266 324.075 754.292 321.934L745.189 326.072C745.413 326.565 745.638 327.429 745.638 328.851H755.638ZM754.356 322.08C753.456 319.919 752.052 317.979 750 316.611L744.453 324.931C744.556 325 744.829 325.214 745.125 325.926L754.356 322.08ZM750 316.611C748.013 315.286 745.768 314.694 743.456 314.694V324.694C744.018 324.694 744.286 324.82 744.453 324.931L750 316.611ZM743.456 314.694C738.659 314.694 734.676 316.846 731.871 320.703L739.958 326.585C740.984 325.175 742.029 324.694 743.456 324.694V314.694ZM731.938 320.614C729.574 323.716 727.921 327.281 726.934 331.23L736.636 333.655C737.324 330.9 738.425 328.599 739.892 326.674L731.938 320.614ZM726.945 331.187C726.045 334.657 725.528 337.857 725.528 340.702H735.528C735.528 338.998 735.849 336.692 736.625 333.697L726.945 331.187ZM725.528 340.702C725.528 344.335 726.149 347.783 727.786 350.695L736.502 345.792C735.985 344.873 735.528 343.293 735.528 340.702H725.528ZM727.984 351.017C730.404 354.647 734.318 355.937 738.249 355.937V345.937C737.313 345.937 736.811 345.788 736.586 345.689C736.412 345.612 736.358 345.55 736.304 345.47L727.984 351.017ZM798.071 374.099L794.132 377.179L794.146 377.197L794.16 377.214L798.071 374.099ZM794.3 347.346L799.169 348.485L799.17 348.479L794.3 347.346ZM815.488 256.31V251.31H811.518L810.618 255.177L815.488 256.31ZM856.786 256.31L861.657 257.438L863.076 251.31H856.786V256.31ZM835.957 346.268L840.818 347.441L840.823 347.419L840.829 347.396L835.957 346.268ZM845.833 356.682L845.213 351.721L845.169 351.727L845.126 351.733L845.833 356.682ZM847.988 356.323L852.822 357.601L854.984 349.42L846.775 351.473L847.988 356.323ZM841.344 381.461L843.348 386.042L845.561 385.074L846.178 382.739L841.344 381.461ZM834.341 383.257L833.695 378.299L833.695 378.299L834.341 383.257ZM824.286 378.796C812.709 378.796 805.787 375.763 801.982 370.985L794.16 377.214C800.649 385.364 811.204 388.796 824.286 388.796V378.796ZM802.01 371.02C798.117 366.04 796.741 358.859 799.169 348.485L789.432 346.206C786.593 358.336 787.731 368.991 794.132 377.179L802.01 371.02ZM799.17 348.479L820.358 257.444L810.618 255.177L789.43 346.212L799.17 348.479ZM815.488 261.31H856.786V251.31H815.488V261.31ZM851.915 255.182L831.086 345.14L840.829 347.396L861.657 257.438L851.915 255.182ZM831.097 345.095C830.154 349.002 829.934 353.25 832.029 356.741L840.604 351.596C840.544 351.496 840.085 350.478 840.818 347.441L831.097 345.095ZM832.029 356.741C834.433 360.748 838.81 361.862 842.781 361.862V351.862C841.588 351.862 840.946 351.691 840.664 351.573C840.454 351.486 840.53 351.473 840.604 351.596L832.029 356.741ZM842.781 361.862C844.126 361.862 845.394 361.796 846.54 361.632L845.126 351.733C844.596 351.808 843.83 351.862 842.781 351.862V361.862ZM846.453 361.644C847.46 361.518 848.42 361.369 849.2 361.174L846.775 351.473C846.597 351.517 846.121 351.608 845.213 351.721L846.453 361.644ZM843.154 355.046L836.51 380.184L846.178 382.739L852.822 357.601L843.154 355.046ZM839.34 376.881C837.972 377.479 836.123 377.982 833.695 378.299L834.988 388.215C838.066 387.813 840.886 387.12 843.348 386.042L839.34 376.881ZM833.695 378.299C831.224 378.621 828.103 378.796 824.286 378.796V388.796C828.37 388.796 831.952 388.611 834.988 388.215L833.695 378.299ZM870.204 378.588L867.968 383.061L867.983 383.068L867.998 383.076L870.204 378.588ZM853.864 364.224L849.606 366.844L849.635 366.893L849.666 366.94L853.864 364.224ZM854.223 317L858.668 319.29L858.675 319.277L858.682 319.263L854.223 317ZM872.358 297.788L874.921 302.081L874.931 302.075L874.94 302.07L872.358 297.788ZM927.303 295.633L925.067 300.105L925.082 300.113L925.097 300.12L927.303 295.633ZM943.642 310.177L939.384 312.798L939.414 312.846L939.445 312.893L943.642 310.177ZM943.463 357.221L939.004 354.958L939.004 354.958L943.463 357.221ZM925.148 376.613L927.711 380.906L927.721 380.901L927.73 380.895L925.148 376.613ZM901.267 353.091L897.518 349.783L897.462 349.847L897.407 349.913L901.267 353.091ZM905.756 345.37L910.423 347.165L910.434 347.136L910.445 347.107L905.756 345.37ZM908.449 335.674L913.366 336.585L913.369 336.569L913.371 336.553L908.449 335.674ZM908.27 321.669L903.718 323.738L903.836 323.997L903.982 324.241L908.27 321.669ZM905.756 318.976L903.328 323.346L903.522 323.454L903.725 323.545L905.756 318.976ZM896.06 321.13L892.311 317.822L892.254 317.886L892.2 317.952L896.06 321.13ZM891.751 329.031L896.417 330.826L896.428 330.797L896.439 330.767L891.751 329.031ZM889.057 338.727L893.974 339.637L893.976 339.621L893.979 339.606L889.057 338.727ZM889.057 352.553L884.505 354.622L884.581 354.787L884.668 354.947L889.057 352.553ZM891.751 355.426L889.322 359.796L889.517 359.904L889.72 359.995L891.751 355.426ZM894.983 378.796C886.138 378.796 878.661 377.174 872.409 374.101L867.998 383.076C875.872 386.946 884.914 388.796 894.983 388.796V378.796ZM872.44 374.116C866.24 371.016 861.494 366.812 858.062 361.508L849.666 366.94C854.135 373.846 860.282 379.218 867.968 383.061L872.44 374.116ZM858.122 361.603C854.823 356.242 853.118 350.045 853.118 342.857H843.118C843.118 351.709 845.244 359.756 849.606 366.844L858.122 361.603ZM853.118 342.857C853.118 334.275 854.981 326.447 858.668 319.29L849.778 314.711C845.325 323.355 843.118 332.765 843.118 342.857H853.118ZM858.682 319.263C862.307 312.119 867.679 306.405 874.921 302.081L869.795 293.495C860.997 298.747 854.279 305.842 849.764 314.738L858.682 319.263ZM874.94 302.07C882.115 297.743 891.279 295.426 902.703 295.426V285.426C889.947 285.426 878.881 288.016 869.777 293.506L874.94 302.07ZM902.703 295.426C911.551 295.426 918.953 297.049 925.067 300.105L929.539 291.161C921.766 287.275 912.769 285.426 902.703 285.426V295.426ZM925.097 300.12C931.381 303.209 936.086 307.438 939.384 312.798L947.901 307.557C943.538 300.467 937.35 295 929.508 291.146L925.097 300.12ZM939.445 312.893C942.818 318.107 944.568 324.206 944.568 331.365H954.568C954.568 322.484 952.367 314.457 947.84 307.461L939.445 312.893ZM944.568 331.365C944.568 339.816 942.709 347.657 939.004 354.958L947.922 359.484C952.356 350.745 954.568 341.348 954.568 331.365H944.568ZM939.004 354.958C935.383 362.095 929.951 367.879 922.566 372.331L927.73 380.895C936.625 375.532 943.403 368.388 947.922 359.484L939.004 354.958ZM922.585 372.32C915.536 376.528 906.43 378.796 894.983 378.796V388.796C907.715 388.796 918.72 386.275 927.711 380.906L922.585 372.32ZM895.342 361.144C899.357 361.144 902.67 359.253 905.127 356.27L897.407 349.913C896.512 350.999 895.875 351.144 895.342 351.144V361.144ZM905.016 356.399C907.284 353.83 909.059 350.71 910.423 347.165L901.089 343.575C900.058 346.255 898.842 348.283 897.518 349.783L905.016 356.399ZM910.445 347.107C911.736 343.62 912.713 340.111 913.366 336.585L903.533 334.764C902.989 337.701 902.17 340.657 901.067 343.634L910.445 347.107ZM913.371 336.553C914.005 333.006 914.347 329.767 914.347 326.876H904.347C904.347 329.013 904.091 331.639 903.527 334.795L913.371 336.553ZM914.347 326.876C914.347 324.208 913.949 321.416 912.557 319.096L903.982 324.241C903.982 324.241 903.989 324.252 904 324.277C904.012 324.302 904.028 324.339 904.048 324.392C904.087 324.498 904.135 324.658 904.181 324.881C904.276 325.338 904.347 325.989 904.347 326.876H914.347ZM912.822 319.6C911.837 317.433 910.221 315.488 907.787 314.406L903.725 323.545C903.682 323.525 903.639 323.501 903.601 323.473C903.563 323.446 903.542 323.425 903.537 323.42C903.527 323.409 903.604 323.487 903.718 323.738L912.822 319.6ZM908.184 314.605C906.313 313.565 904.271 313.078 902.165 313.078V323.078C902.692 323.078 903.044 323.189 903.328 323.346L908.184 314.605ZM902.165 313.078C898.178 313.078 894.855 314.939 892.311 317.822L899.809 324.438C900.856 323.252 901.603 323.078 902.165 323.078V313.078ZM892.2 317.952C890.079 320.527 888.396 323.69 887.062 327.294L896.439 330.767C897.499 327.907 898.689 325.803 899.92 324.309L892.2 317.952ZM887.084 327.236C885.77 330.651 884.788 334.19 884.135 337.848L893.979 339.606C894.523 336.56 895.337 333.635 896.417 330.826L887.084 327.236ZM884.141 337.816C883.503 341.263 883.159 344.45 883.159 347.346H893.159C893.159 345.214 893.415 342.655 893.974 339.637L884.141 337.816ZM883.159 347.346C883.159 349.895 883.503 352.417 884.505 354.622L893.609 350.484C893.414 350.055 893.159 349.105 893.159 347.346H883.159ZM884.668 354.947C885.74 356.914 887.254 358.647 889.322 359.796L894.179 351.055C894.093 351.007 893.81 350.825 893.447 350.158L884.668 354.947ZM889.72 359.995C891.507 360.789 893.407 361.144 895.342 361.144V351.144C894.642 351.144 894.148 351.02 893.781 350.857L889.72 359.995ZM1041.6 294.197L1038.91 298.415L1038.96 298.444L1039.01 298.473L1041.6 294.197ZM1050.76 305.15L1046.18 307.16L1046.2 307.206L1046.22 307.252L1050.76 305.15ZM1051.29 344.832L1046.46 343.543L1046.46 343.572L1046.45 343.6L1051.29 344.832ZM1043.39 364.224L1039.09 361.677L1039.09 361.677L1043.39 364.224ZM1030.64 378.409L1027.74 374.34L1027.74 374.34L1030.64 378.409ZM1002.45 382L1003.95 377.228L1003.9 377.212L1003.85 377.198L1002.45 382ZM992.579 376.254L988.969 379.714L989.042 379.791L989.119 379.864L992.579 376.254ZM987.012 364.403L991.924 363.468L982.205 363.03L987.012 364.403ZM981.985 382V387H985.756L986.792 383.374L981.985 382ZM942.123 382L937.252 380.873L935.834 387H942.123V382ZM971.211 256.31V251.31H967.236L966.34 255.183L971.211 256.31ZM1012.51 256.31L1017.38 257.424L1018.78 251.31H1012.51V256.31ZM1001.02 306.586L996.144 305.472L1005.3 309.173L1001.02 306.586ZM1012.51 294.735L1015.1 299.013L1015.14 298.988L1015.18 298.963L1012.51 294.735ZM1005.87 351.834L1002.22 348.415L1002.21 348.423L1005.87 351.834ZM1010.18 345.011L1014.8 346.904L1014.82 346.869L1014.83 346.833L1010.18 345.011ZM1012.51 336.752L1007.61 335.732L1007.6 335.813L1007.58 335.895L1012.51 336.752ZM1012.69 324.362L1007.91 325.833L1007.93 325.888L1007.95 325.943L1012.69 324.362ZM1010.18 320.771L1007.11 324.718L1007.2 324.795L1007.31 324.867L1010.18 320.771ZM1000.12 322.208L1003.66 325.743L1003.72 325.682L1003.78 325.619L1000.12 322.208ZM995.811 328.851L991.225 326.858L991.188 326.943L991.155 327.029L995.811 328.851ZM993.297 337.29L988.402 336.271L988.382 336.369L988.365 336.468L993.297 337.29ZM994.374 352.194L990.306 355.1L990.357 355.172L990.411 355.242L994.374 352.194ZM1027.59 295.426C1032.17 295.426 1035.88 296.485 1038.91 298.415L1044.28 289.978C1039.41 286.881 1033.78 285.426 1027.59 285.426V295.426ZM1039.01 298.473C1041.94 300.252 1044.37 303.038 1046.18 307.16L1055.33 303.14C1052.83 297.446 1049.15 292.93 1044.19 289.921L1039.01 298.473ZM1046.22 307.252C1048.1 311.304 1049.17 316.694 1049.17 323.644H1059.17C1059.17 315.751 1057.96 308.811 1055.29 303.047L1046.22 307.252ZM1049.17 323.644C1049.17 330.122 1048.27 336.752 1046.46 343.543L1056.12 346.12C1058.14 338.547 1059.17 331.051 1059.17 323.644H1049.17ZM1046.45 343.6C1044.76 350.232 1042.3 356.249 1039.09 361.677L1047.7 366.77C1051.43 360.467 1054.23 353.556 1056.14 346.064L1046.45 343.6ZM1039.09 361.677C1035.94 367.006 1032.14 371.194 1027.74 374.34L1033.55 382.478C1039.2 378.442 1043.91 373.173 1047.7 366.77L1039.09 361.677ZM1027.74 374.34C1023.58 377.308 1018.92 378.796 1013.59 378.796V388.796C1020.94 388.796 1027.65 386.692 1033.55 382.478L1027.74 374.34ZM1013.59 378.796C1010.56 378.796 1007.35 378.291 1003.95 377.228L1000.96 386.772C1005.22 388.103 1009.43 388.796 1013.59 388.796V378.796ZM1003.85 377.198C1000.94 376.353 998.347 374.857 996.038 372.644L989.119 379.864C992.556 383.158 996.551 385.493 1001.06 386.802L1003.85 377.198ZM996.189 372.795C994.271 370.794 992.752 367.815 991.924 363.468L982.101 365.339C983.188 371.047 985.38 375.969 988.969 379.714L996.189 372.795ZM982.205 363.03L977.177 380.626L986.792 383.374L991.82 365.777L982.205 363.03ZM981.985 377H942.123V387H981.985V377ZM946.994 383.127L976.083 257.438L966.34 255.183L937.252 380.873L946.994 383.127ZM971.211 261.31H1012.51V251.31H971.211V261.31ZM1007.64 255.196L996.144 305.472L1005.89 307.7L1017.38 257.424L1007.64 255.196ZM1005.3 309.173C1008.05 304.626 1011.33 301.295 1015.1 299.013L1009.92 290.458C1004.59 293.682 1000.21 298.252 996.739 303.999L1005.3 309.173ZM1015.18 298.963C1018.91 296.607 1023.01 295.426 1027.59 295.426V285.426C1021.16 285.426 1015.21 287.118 1009.84 290.508L1015.18 298.963ZM999.581 359.528C1003.44 359.528 1006.87 358.081 1009.52 355.246L1002.21 348.423C1001.51 349.179 1000.75 349.528 999.581 349.528V359.528ZM1009.51 355.254C1011.76 352.858 1013.51 350.055 1014.8 346.904L1005.55 343.118C1004.68 345.235 1003.56 346.98 1002.22 348.415L1009.51 355.254ZM1014.83 346.833C1016.02 343.786 1016.9 340.71 1017.44 337.608L1007.58 335.895C1007.17 338.3 1006.48 340.73 1005.52 343.189L1014.83 346.833ZM1017.4 337.771C1018.03 334.745 1018.41 332.033 1018.41 329.749H1008.41C1008.41 331.056 1008.18 333.012 1007.61 335.732L1017.4 337.771ZM1018.41 329.749C1018.41 327.265 1018.14 324.893 1017.43 322.781L1007.95 325.943C1008.2 326.704 1008.41 327.924 1008.41 329.749H1018.41ZM1017.47 322.892C1016.7 320.4 1015.26 318.224 1013.04 316.675L1007.31 324.867C1007.49 324.994 1007.72 325.212 1007.91 325.833L1017.47 322.892ZM1013.24 316.824C1011.05 315.115 1008.42 314.514 1005.87 314.514V324.514C1006.38 324.514 1006.71 324.575 1006.89 324.628C1006.98 324.655 1007.03 324.679 1007.06 324.693C1007.09 324.708 1007.1 324.716 1007.11 324.718L1013.24 316.824ZM1005.87 314.514C1002.13 314.514 998.941 316.143 996.465 318.796L1003.78 325.619C1004.65 324.681 1005.3 324.514 1005.87 324.514V314.514ZM996.585 318.672C994.364 320.892 992.609 323.676 991.225 326.858L1000.4 330.845C1001.41 328.52 1002.52 326.875 1003.66 325.743L996.585 318.672ZM991.155 327.029C989.976 330.041 989.058 333.122 988.402 336.271L998.192 338.31C998.733 335.713 999.491 333.168 1000.47 330.673L991.155 327.029ZM988.365 336.468C987.85 339.557 987.579 342.47 987.579 345.191H997.579C997.579 343.124 997.786 340.77 998.229 338.112L988.365 336.468ZM987.579 345.191C987.579 348.774 988.285 352.27 990.306 355.1L998.443 349.287C998.07 348.765 997.579 347.593 997.579 345.191H987.579ZM990.411 355.242C992.712 358.234 996.033 359.528 999.581 359.528V349.528C998.581 349.528 998.43 349.266 998.337 349.145L990.411 355.242Z" fill="#FFFF00" mask="url(#path-1-outside-1_2703_45)"/>
<path d="M218.632 382L247.72 256.31H289.018L275.551 314.487L272.499 320.592C273.935 315.444 276.09 310.596 278.963 306.047C281.836 301.499 285.666 297.788 290.454 294.915C295.242 291.922 301.048 290.426 307.871 290.426C313.258 290.426 317.867 291.743 321.697 294.376C325.647 297.01 328.401 300.661 329.957 305.329C331.513 309.998 331.573 315.444 330.136 321.669L316.131 382H274.833L287.043 329.928C287.641 327.175 287.402 325.021 286.324 323.464C285.367 321.789 283.691 320.951 281.297 320.951C279.621 320.951 278.125 321.429 276.808 322.387C275.491 323.225 274.354 324.542 273.396 326.337C272.558 328.013 271.84 330.168 271.242 332.801L259.93 382H218.632ZM333.328 420.605C327.702 420.605 322.435 420.006 317.527 418.809C312.499 417.612 308.609 416.116 305.855 414.32L316.09 386.489C320.28 389.96 325.786 391.696 332.609 391.696C335.602 391.696 338.236 391.277 340.51 390.439C342.904 389.601 344.64 388.344 345.717 386.668L346.256 385.771L330.455 292.222H372.471L371.394 338.547L370.316 360.094L378.756 338.368L397.25 292.222H440.344L389.349 382.718C384.202 391.935 378.935 399.297 373.548 404.804C368.281 410.43 362.416 414.44 355.952 416.834C349.488 419.348 341.946 420.605 333.328 420.605ZM408.697 419.707L438.144 292.222H475.851L469.387 328.492L467.771 325.08C469.088 317.898 471.422 311.733 474.774 306.586C478.245 301.439 482.375 297.489 487.163 294.735C492.071 291.862 497.278 290.426 502.785 290.426C508.171 290.426 512.84 291.683 516.79 294.197C520.74 296.591 523.793 300.242 525.947 305.15C528.222 310.058 529.359 316.222 529.359 323.644C529.359 330.587 528.461 337.649 526.666 344.832C524.87 351.894 522.177 358.358 518.586 364.224C515.114 370.089 510.924 374.818 506.017 378.409C501.109 382 495.483 383.796 489.138 383.796C485.068 383.796 480.938 383.077 476.749 381.641C472.559 380.085 469.028 377.391 466.155 373.561C463.402 369.611 462.025 364.164 462.025 357.221L466.334 348.423L449.995 419.707H408.697ZM474.774 354.528C477.287 354.528 479.382 353.63 481.058 351.834C482.854 349.919 484.29 347.645 485.368 345.011C486.445 342.258 487.223 339.505 487.702 336.752C488.3 333.879 488.6 331.545 488.6 329.749C488.6 327.594 488.36 325.799 487.881 324.362C487.402 322.806 486.565 321.609 485.368 320.771C484.29 319.933 482.854 319.514 481.058 319.514C478.903 319.514 476.988 320.412 475.312 322.208C473.636 323.883 472.2 326.098 471.003 328.851C469.926 331.604 469.088 334.417 468.489 337.29C468.01 340.163 467.771 342.797 467.771 345.191C467.771 348.183 468.369 350.518 469.566 352.194C470.764 353.75 472.499 354.528 474.774 354.528ZM576.249 383.616C567.031 383.616 558.772 382 551.47 378.768C544.287 375.536 538.661 370.867 534.591 364.763C530.521 358.538 528.486 351.176 528.486 342.677C528.486 332.143 530.641 322.986 534.95 315.205C539.38 307.304 545.544 301.199 553.445 296.89C561.465 292.581 570.802 290.426 581.456 290.426C591.152 290.426 599.411 292.162 606.235 295.633C613.058 298.985 618.205 303.653 621.676 309.639C625.268 315.624 627.063 322.567 627.063 330.467C627.063 332.742 626.943 335.136 626.704 337.649C626.465 340.163 625.986 342.617 625.268 345.011H556.677L556.497 329.749H596.718L586.842 333.52C587.441 331.844 587.74 330.467 587.74 329.39C587.86 328.312 587.92 327.295 587.92 326.337C587.92 324.063 587.561 322.327 586.842 321.13C586.244 319.813 585.406 318.916 584.329 318.437C583.251 317.838 582.054 317.539 580.737 317.539C577.625 317.539 575.051 318.437 573.017 320.232C571.101 322.028 569.605 324.362 568.528 327.235C567.57 330.108 566.912 333.161 566.552 336.393C566.193 339.625 566.014 342.617 566.014 345.37C566.014 348.124 566.493 350.338 567.45 352.014C568.408 353.69 569.725 354.887 571.401 355.605C573.196 356.323 575.171 356.682 577.326 356.682C580.438 356.682 582.832 355.904 584.508 354.348C586.304 352.672 587.561 350.757 588.279 348.602L622.754 359.735C620.958 364.763 617.786 369.072 613.237 372.663C608.688 376.254 603.242 379.007 596.898 380.923C590.553 382.718 583.67 383.616 576.249 383.616ZM619.682 382L640.51 292.222H677.679L669.958 332.801L669.06 328.672C670.975 321.13 673.429 314.487 676.422 308.741C679.414 302.995 683.245 298.506 687.913 295.274C692.701 292.042 698.507 290.426 705.33 290.426C707.365 290.426 709.041 290.606 710.358 290.965C711.675 291.204 712.752 291.563 713.59 292.042L704.073 325.799C702.876 325.2 701.44 324.721 699.764 324.362C698.088 324.003 695.874 323.824 693.12 323.824C689.888 323.824 686.656 324.542 683.424 325.978C680.312 327.295 677.499 329.51 674.985 332.622C672.591 335.734 670.736 339.984 669.419 345.37L660.98 382H619.682ZM733.748 420.605C728.242 420.605 722.855 419.946 717.588 418.63C712.321 417.313 707.593 415.218 703.403 412.345C699.213 409.472 695.981 405.761 693.707 401.213C691.432 396.784 690.475 391.457 690.834 385.232L732.312 383.077C731.833 387.028 731.952 390.14 732.671 392.414C733.389 394.808 735.544 396.005 739.135 396.005C740.93 396.005 742.486 395.407 743.803 394.21C745.24 393.133 746.437 391.457 747.394 389.182C748.472 386.908 749.429 383.915 750.267 380.204L758.347 345.73L759.425 347.346C757.509 357.999 753.978 366.019 748.831 371.406C743.683 376.793 736.92 379.486 728.541 379.486C723.274 379.486 718.486 378.289 714.176 375.895C709.867 373.501 706.455 369.85 703.942 364.942C701.428 360.034 700.171 353.81 700.171 346.268C700.171 339.445 701.129 332.742 703.044 326.158C704.959 319.454 707.772 313.409 711.483 308.023C715.194 302.636 719.683 298.386 724.95 295.274C730.217 292.042 736.262 290.426 743.085 290.426C746.796 290.426 750.447 291.324 754.038 293.119C757.749 294.915 760.801 297.967 763.195 302.277C765.589 306.466 766.607 312.152 766.248 319.335L762.118 325.799L769.839 292.222H811.137L792.104 374.818C789.471 386.429 785.64 395.527 780.612 402.11C775.585 408.814 769.181 413.542 761.4 416.295C753.739 419.168 744.521 420.605 733.748 420.605ZM748.472 350.937C751.345 350.937 753.679 349.74 755.474 347.346C757.27 344.951 758.587 342.079 759.425 338.727C760.382 335.255 760.861 331.963 760.861 328.851C760.861 326.936 760.562 325.32 759.963 324.003C759.365 322.567 758.527 321.489 757.45 320.771C756.372 320.053 755.115 319.694 753.679 319.694C750.567 319.694 748.053 321.011 746.137 323.644C744.222 326.158 742.846 329.091 742.008 332.442C741.17 335.674 740.751 338.428 740.751 340.702C740.751 343.814 741.289 346.328 742.367 348.243C743.564 350.039 745.599 350.937 748.472 350.937ZM834.509 383.796C822.179 383.796 813.441 380.564 808.294 374.099C803.146 367.516 801.889 358.598 804.523 347.346L825.711 256.31H867.009L846.18 346.268C845.342 349.74 845.462 352.373 846.539 354.169C847.617 355.964 849.771 356.862 853.003 356.862C854.2 356.862 855.218 356.802 856.056 356.682C857.013 356.563 857.732 356.443 858.21 356.323L851.567 381.461C849.652 382.299 847.317 382.898 844.564 383.257C841.811 383.616 838.459 383.796 834.509 383.796ZM905.205 383.796C895.749 383.796 887.489 382.06 880.426 378.588C873.483 375.117 868.037 370.329 864.087 364.224C860.256 357.999 858.341 350.877 858.341 342.857C858.341 333.52 860.376 324.901 864.446 317C868.516 308.98 874.561 302.576 882.581 297.788C890.721 292.88 900.836 290.426 912.926 290.426C922.383 290.426 930.583 292.162 937.525 295.633C944.588 299.105 950.035 303.953 953.865 310.177C957.815 316.282 959.79 323.345 959.79 331.365C959.79 340.582 957.756 349.201 953.686 357.221C949.616 365.241 943.511 371.705 935.371 376.613C927.351 381.401 917.295 383.796 905.205 383.796ZM905.564 356.144C907.839 356.144 909.814 355.126 911.49 353.091C913.285 351.056 914.782 348.483 915.979 345.37C917.176 342.138 918.073 338.906 918.672 335.674C919.27 332.323 919.57 329.39 919.57 326.876C919.57 324.602 919.211 322.866 918.492 321.669C917.894 320.352 917.056 319.454 915.979 318.976C914.901 318.377 913.704 318.078 912.387 318.078C910.113 318.078 908.078 319.095 906.283 321.13C904.607 323.165 903.17 325.799 901.973 329.031C900.776 332.143 899.878 335.375 899.28 338.727C898.681 341.959 898.382 344.832 898.382 347.346C898.382 349.5 898.681 351.236 899.28 352.553C899.998 353.869 900.896 354.827 901.973 355.426C903.051 355.904 904.248 356.144 905.564 356.144ZM1037.81 290.426C1043.2 290.426 1047.87 291.683 1051.82 294.197C1055.77 296.591 1058.82 300.242 1060.98 305.15C1063.25 310.058 1064.39 316.222 1064.39 323.644C1064.39 330.587 1063.43 337.649 1061.52 344.832C1059.72 351.894 1057.09 358.358 1053.62 364.224C1050.14 370.089 1045.9 374.818 1040.87 378.409C1035.84 382 1030.15 383.796 1023.81 383.796C1020.22 383.796 1016.51 383.197 1012.68 382C1008.97 380.923 1005.67 379.007 1002.8 376.254C1000.05 373.381 998.193 369.431 997.235 364.403L992.208 382H952.346L981.434 256.31H1022.73L1011.24 306.586C1014.35 301.439 1018.18 297.489 1022.73 294.735C1027.28 291.862 1032.31 290.426 1037.81 290.426ZM1009.8 354.528C1012.32 354.528 1014.41 353.63 1016.09 351.834C1017.88 349.919 1019.32 347.645 1020.4 345.011C1021.48 342.258 1022.25 339.505 1022.73 336.752C1023.33 333.879 1023.63 331.545 1023.63 329.749C1023.63 327.594 1023.39 325.799 1022.91 324.362C1022.43 322.806 1021.59 321.609 1020.4 320.771C1019.32 319.933 1017.88 319.514 1016.09 319.514C1013.93 319.514 1012.02 320.412 1010.34 322.208C1008.67 323.883 1007.23 326.098 1006.03 328.851C1004.96 331.604 1004.12 334.417 1003.52 337.29C1003.04 340.163 1002.8 342.797 1002.8 345.191C1002.8 348.183 1003.4 350.518 1004.6 352.194C1005.79 353.75 1007.53 354.528 1009.8 354.528Z" fill="#8EFF51"/>
</svg>
